<?xml version="1.0" encoding="UTF-8" standalone="no"?>
<!-- Created with Inkscape (http://www.inkscape.org/) -->
<svg xmlns:inkscape="http://www.inkscape.org/namespaces/inkscape" xmlns:rdf="http://www.w3.org/1999/02/22-rdf-syntax-ns#" xmlns="http://www.w3.org/2000/svg" xmlns:xlink="http://www.w3.org/1999/xlink" xmlns:ns1="http://sozi.baierouge.fr" xmlns:cc="http://creativecommons.org/ns#" xmlns:sodipodi="http://sodipodi.sourceforge.net/DTD/sodipodi-0.dtd" xmlns:dc="http://purl.org/dc/elements/1.1/" id="svg2" xml:space="preserve" viewBox="0 0 43.398 23.307" version="1.1" inkscape:version="0.91 r13725">
  <defs id="defs6">
    <linearGradient id="linearGradient24" y2="-2.9443" gradientUnits="userSpaceOnUse" x2="29.709" gradientTransform="matrix(.936 .00066476 .00063371 .936 6.9125 8.5316)" y1="-2.9443" x1="-5.5234">
      <stop id="stop26" style="stop-color:#dadcde" offset="0"/>
      <stop id="stop28" style="stop-color:#b3b4b5" offset="1"/>
    </linearGradient>
    <linearGradient id="linearGradient42" y2="-14016" gradientUnits="userSpaceOnUse" x2="18107" gradientTransform="matrix(-.90552 .23688 -.23688 -.90552 13075 -16969)" y1="-14016" x1="18069">
      <stop id="stop44" style="stop-color:#cccccc" offset="0"/>
      <stop id="stop46" style="stop-color:#ffffff" offset="1"/>
    </linearGradient>
    <linearGradient id="linearGradient60" y2="-14.222" gradientUnits="userSpaceOnUse" x2="40.394" gradientTransform="matrix(.936 -.00072501 -.00075789 .936 -4.4625 19.86)" y1="-14.222" x1="8.1206">
      <stop id="stop62" style="stop-color:#cccccc" offset="0"/>
      <stop id="stop64" style="stop-color:#ffffff" offset="1"/>
    </linearGradient>
    <radialGradient id="radialGradient258" gradientUnits="userSpaceOnUse" cy="713.61" cx="15484" gradientTransform="matrix(.09136 .93152 .93152 -.09136 -2057.1 -14352)" r="2.5622">
      <stop id="stop260" style="stop-color:#fff6a1" offset="0"/>
      <stop id="stop262" style="stop-color:#d6b200" offset="1"/>
    </radialGradient>
    <radialGradient id="radialGradient276" gradientUnits="userSpaceOnUse" cy="719.7" cx="15477" gradientTransform="matrix(.09208 .93144 .93144 -.09208 -2073.8 -14344)" r="2.1605">
      <stop id="stop278" style="stop-color:#fff6a1" offset="0"/>
      <stop id="stop280" style="stop-color:#fad000" offset="1"/>
    </radialGradient>
    <radialGradient id="radialGradient294" gradientUnits="userSpaceOnUse" cy="3272.1" cx="9569" gradientTransform="matrix(.57688 .73712 .73712 -.57688 -7919.7 -5154.5)" r="2.5555">
      <stop id="stop296" style="stop-color:#fff6a1" offset="0"/>
      <stop id="stop298" style="stop-color:#d6b200" offset="1"/>
    </radialGradient>
    <radialGradient id="radialGradient312" gradientUnits="userSpaceOnUse" cy="3276" cx="9540.1" gradientTransform="matrix(.57872 .7356 .7356 -.57872 -7919.1 -5110)" r="2.1631">
      <stop id="stop314" style="stop-color:#fff6a1" offset="0"/>
      <stop id="stop316" style="stop-color:#fad000" offset="1"/>
    </radialGradient>
    <radialGradient id="radialGradient330" gradientUnits="userSpaceOnUse" cy="3270" cx="9526.6" gradientTransform="matrix(.57928 .7352 .7352 -.57928 -7908.5 -5106.3)" r="2.6257">
      <stop id="stop332" style="stop-color:#fff6a1" offset="0"/>
      <stop id="stop334" style="stop-color:#d6b200" offset="1"/>
    </radialGradient>
    <radialGradient id="radialGradient348" gradientUnits="userSpaceOnUse" cy="3267.1" cx="9553.4" gradientTransform="matrix(.5776 .73656 .73656 -.5776 -7909.9 -5145.2)" r="2.208">
      <stop id="stop350" style="stop-color:#fff6a1" offset="0"/>
      <stop id="stop352" style="stop-color:#fad000" offset="1"/>
    </radialGradient>
    <radialGradient id="radialGradient366" gradientUnits="userSpaceOnUse" cy="-10.15" cx="33.1" gradientTransform="matrix(-.67424 .6492 -.63384 -.65824 48.597 -23.719)" r="2.6078">
      <stop id="stop368" style="stop-color:#fff6a1" offset="0"/>
      <stop id="stop370" style="stop-color:#d6b200" offset="1"/>
    </radialGradient>
    <radialGradient id="radialGradient384" gradientUnits="userSpaceOnUse" cy="-9.5498" cx="32.9" gradientTransform="matrix(-.67384 .6496 -.63152 -.65504 48.665 -22.618)" r="2.21">
      <stop id="stop386" style="stop-color:#fff6a1" offset="0"/>
      <stop id="stop388" style="stop-color:#fad000" offset="1"/>
    </radialGradient>
    <clipPath id="clipPath404">
      <path id="path406" d="m0 18.645h33v-14h-33v14z" inkscape:connector-curvature="0"/>
    </clipPath>
    <clipPath id="clipPath410">
      <path id="path412" d="m32.934 11.548c0.054 0.66-0.246 1.273-0.903 1.839 0.278 0.461 0.293 0.688 0.047 0.68l-1.183 1.016c-0.301 0.258-0.782 0.367-1.45 0.328-0.191-0.024-0.39-0.09-0.593-0.195-0.016 0.293-0.032 0.492-0.055 0.601v0.02c-0.035 0.086-0.125 0.16-0.266 0.214-0.074 0.028-0.164 0.059-0.261 0.094l-0.219 0.035c-0.043 0.172-0.106 0.332-0.192 0.473-0.14 0.238-0.41 0.418-0.812 0.543l-0.524 0.051c-0.023 0.012-0.05 0.015-0.078 0.015-0.265-0.003-0.582-0.171-0.949-0.5-0.219-0.168-0.394-0.343-0.527-0.531-0.172-0.043-0.289-0.058-0.36-0.047l-0.019-0.004c-0.543 0.336-1.098 0.672-1.664 1.004-0.145 0.086-0.278 0.157-0.406 0.211-0.438 0.336-1.004 0.637-1.7 0.903-0.566 0.253-1.168 0.347-1.808 0.281-0.356-0.02-0.59-0.086-0.696-0.195l-0.019 0.019c-0.125-0.281-0.207-0.512-0.246-0.687-0.16-0.047-0.336-0.106-0.535-0.172-0.297 0.074-0.567 0.187-0.809 0.343-0.094 0.071-0.184 0.133-0.266 0.196 0.043 0.011 0.09 0.023 0.141 0.043l-0.281 0.113-0.406 0.27c-0.11 0.132-0.27 0.167-0.485 0.109-0.289-0.086-0.531-0.145-0.715-0.176l-1.191-0.426c0.027 0.004 0.082 0.008 0.16 0.004-0.16-0.004-0.277-0.062-0.355-0.168l-0.02-0.023h-0.121c-0.047 0.082-0.109 0.152-0.184 0.215-0.242 0.195-0.625 0.312-1.148 0.355-0.461 0.07-0.813 0.031-1.059-0.125-0.336 0.18-0.589 0.266-0.765 0.262-0.215-0.004-0.52-0.129-0.914-0.379l-0.352-0.246c-0.238-0.106-0.355-0.242-0.351-0.41 0.011-0.512 0.054-0.918 0.125-1.219-0.227-0.043-0.473-0.137-0.735-0.273l-0.512-0.333c-0.132-0.05-0.195-0.132-0.195-0.246l0.008-0.238c-0.027-0.055-0.066-0.098-0.117-0.125-0.348-0.039-0.664-0.168-0.953-0.379-0.036-0.015-0.075-0.031-0.118-0.043-0.082-0.023-0.16-0.047-0.242-0.066l-0.011 0.539c0.023 0.16-0.684 0.226-2.125 0.195l-0.989-0.422c-0.508-0.183-0.851-0.382-1.027-0.605l-0.039-0.039c-0.031-0.051-0.059-0.098-0.078-0.145-0.012-0.039 0.015-0.07 0.082-0.097l0.004-0.141 0.222-1.055c-0.89-0.613-1.433-1.273-1.636-1.976-0.075-0.278-0.086-0.543-0.039-0.801-0.157-1.469 1.132-2.707 3.863-3.715 2.574-0.992 5.816-1.535 9.719-1.625 0.074 0.297 0.32 0.649 0.734 1.059 0.418 0.433 0.773 0.656 1.066 0.664 0.16 0.004 0.469-0.098 0.926-0.301l0.531-0.387c0.286-0.32 0.434-0.64 0.442-0.972 0.359 0.023 0.711 0.043 1.058 0.066 0.082 0.008 0.172 0.016 0.258 0.023 0.426 0.04 0.844 0.082 1.258 0.129-0.082 0.039-0.148 0.086-0.203 0.137 0.078 0.106 0.266 0.164 0.558 0.172l0.442-0.07 0.199 0.004c-0.082 0.027-0.121 0.089-0.125 0.199l-0.09 0.394c-0.004 0.242 0.125 0.485 0.387 0.731 0.285 0.273 0.656 0.414 1.109 0.426 0.082 0 0.321 0.058 0.715 0.175 0.75 0.016 1.129-0.254 1.141-0.816l-0.067-0.66c0.661 0.156 1.301 0.324 1.93 0.504l-0.262 0.113c0 0.027-0.07 0.094-0.203 0.195-0.164 0.102-0.246 0.223-0.25 0.356-0.008 0.343 0.215 0.523 0.668 0.535 0.293 0.004 0.574-0.043 0.844-0.141 0.297-0.101 0.445-0.246 0.449-0.433 0.004-0.055 0.012-0.121 0.024-0.2 0.476 0.157 0.918 0.321 1.332 0.493-0.137 0.125-0.207 0.265-0.211 0.414-0.008 0.32 0.015 0.535 0.066 0.64 0.074 0.192 0.246 0.289 0.516 0.293 0.16 0.004 0.398-0.07 0.722-0.222 0.297-0.157 0.446-0.258 0.45-0.313 0-0.015 0.011-0.043 0.039-0.078 0.097 0.055 0.187 0.109 0.277 0.168l-0.086 0.195c-0.004 0.321 0.152 0.485 0.473 0.492 0.133 0.004 0.293-0.046 0.48-0.148 0.926 0.68 1.481 1.414 1.672 2.195 0.078 0.286 0.098 0.559 0.063 0.825z" inkscape:connector-curvature="0"/>
    </clipPath>
    <clipPath id="clipPath418">
      <path id="path420" d="m0 5h33v14h-33v-14z" inkscape:connector-curvature="0"/>
    </clipPath>
    <linearGradient id="linearGradient426" y2="-2.9443" gradientUnits="userSpaceOnUse" x2="29.709" gradientTransform="matrix(.93580 .021537 -.020239 .93583 5.1127 13.363)" y1="-2.9443" x1="-5.5234">
      <stop id="stop428" style="stop-color:#dadcde" offset="0"/>
      <stop id="stop430" style="stop-color:#b3b4b5" offset="1"/>
    </linearGradient>
    <linearGradient id="linearGradient436" y2="-14016" gradientUnits="userSpaceOnUse" x2="18107" gradientTransform="matrix(-.91062 .21664 -.21664 -.91062 13450 -16670)" y1="-14016" x1="18069">
      <stop id="stop438" style="stop-color:#cccccc" offset="0"/>
      <stop id="stop440" style="stop-color:#ffffff" offset="1"/>
    </linearGradient>
    <linearGradient id="linearGradient446" y2="-14.222" gradientUnits="userSpaceOnUse" x2="40.394" gradientTransform="matrix(.93583 .020148 -.021630 .93580 -6.5126 24.435)" y1="-14.222" x1="8.1206">
      <stop id="stop448" style="stop-color:#cccccc" offset="0"/>
      <stop id="stop450" style="stop-color:#ffffff" offset="1"/>
    </linearGradient>
    <radialGradient id="radialGradient456" gradientUnits="userSpaceOnUse" cy="713.61" cx="15484" gradientTransform="matrix(.070569 .93337 .93337 -.070569 -1738.3 -14391)" r="2.5622">
      <stop id="stop458" style="stop-color:#fff6a1" offset="0"/>
      <stop id="stop460" style="stop-color:#d6b200" offset="1"/>
    </radialGradient>
    <radialGradient id="radialGradient466" gradientUnits="userSpaceOnUse" cy="719.7" cx="15477" gradientTransform="matrix(.071290 .93331 .93331 -.071290 -1755.1 -14382)" r="2.1605">
      <stop id="stop468" style="stop-color:#fff6a1" offset="0"/>
      <stop id="stop470" style="stop-color:#fad000" offset="1"/>
    </radialGradient>
    <radialGradient id="radialGradient476" gradientUnits="userSpaceOnUse" cy="3272.1" cx="9569" gradientTransform="matrix(.56033 .74984 .74984 -.56033 -7804.8 -5325.4)" r="2.5555">
      <stop id="stop478" style="stop-color:#fff6a1" offset="0"/>
      <stop id="stop480" style="stop-color:#d6b200" offset="1"/>
    </radialGradient>
    <radialGradient id="radialGradient486" gradientUnits="userSpaceOnUse" cy="3276" cx="9540.1" gradientTransform="matrix(.5622 .74836 .74836 -.5622 -7805.1 -5280.9)" r="2.1631">
      <stop id="stop488" style="stop-color:#fff6a1" offset="0"/>
      <stop id="stop490" style="stop-color:#fad000" offset="1"/>
    </radialGradient>
    <radialGradient id="radialGradient496" gradientUnits="userSpaceOnUse" cy="3270" cx="9526.6" gradientTransform="matrix(.56277 .74797 .74797 -.56277 -7794.7 -5276.9)" r="2.6257">
      <stop id="stop498" style="stop-color:#fff6a1" offset="0"/>
      <stop id="stop500" style="stop-color:#d6b200" offset="1"/>
    </radialGradient>
    <radialGradient id="radialGradient506" gradientUnits="userSpaceOnUse" cy="3267.1" cx="9553.4" gradientTransform="matrix(.56106 .74929 .74929 -.56106 -7795.2 -5315.9)" r="2.208">
      <stop id="stop508" style="stop-color:#fff6a1" offset="0"/>
      <stop id="stop510" style="stop-color:#fad000" offset="1"/>
    </radialGradient>
    <radialGradient id="radialGradient516" gradientUnits="userSpaceOnUse" cy="-10.15" cx="33.1" gradientTransform="matrix(-.68858 .63404 -.61903 -.67224 47.508 -17.952)" r="2.6078">
      <stop id="stop518" style="stop-color:#fff6a1" offset="0"/>
      <stop id="stop520" style="stop-color:#d6b200" offset="1"/>
    </radialGradient>
    <radialGradient id="radialGradient526" gradientUnits="userSpaceOnUse" cy="-9.5498" cx="32.9" gradientTransform="matrix(-.68819 .63444 -.61679 -.66899 47.551 -16.849)" r="2.21">
      <stop id="stop528" style="stop-color:#fff6a1" offset="0"/>
      <stop id="stop530" style="stop-color:#fad000" offset="1"/>
    </radialGradient>
    <clipPath id="clipPath816">
      <path id="path818" d="m2 5h30v5h-30v-5z" inkscape:connector-curvature="0"/>
    </clipPath>
  </defs>
  <g id="g10" transform="matrix(1.25 0 0 -1.25 0 23.307)">
    <g id="g12">
      <g id="g14">
        <g id="g16">
          <g id="g22">
            <path id="path30" style="fill-rule:evenodd;fill:url(#linearGradient24)" d="m34.633 5.622c-0.438-1.594-2.418-2.934-5.945-4.028-3.524-1.121-7.551-1.652-12.075-1.589-4.523 0.062-8.218 0.687-11.09 1.871-2.902 1.156-4.132 2.527-3.695 4.117 0.434 1.594 2.399 2.933 5.895 4.027 3.527 1.09 7.55 1.606 12.074 1.543 4.523-0.062 8.238-0.668 11.141-1.824 2.898-1.156 4.132-2.527 3.695-4.117z" inkscape:connector-curvature="0"/>
          </g>
        </g>
      </g>
      <g id="g32">
        <g id="g34">
          <g id="g40">
            <path id="path48" style="fill-rule:evenodd;fill:url(#linearGradient42)" d="m34.633 6.087c-0.438-1.465-2.418-2.7-5.945-3.696-3.493-1-7.5-1.468-12.028-1.406-4.523 0.031-8.234 0.594-11.137 1.688-2.902 1.058-4.132 2.324-3.695 3.789 0.434 1.468 2.399 2.699 5.895 3.699 3.527 0.996 7.55 1.465 12.074 1.402 4.523-0.062 8.238-0.625 11.141-1.683 2.898-1.063 4.132-2.325 3.695-3.793z" inkscape:connector-curvature="0"/>
          </g>
        </g>
      </g>
      <g id="g50">
        <g id="g52">
          <g id="g58">
            <path id="path66" style="fill-rule:evenodd;fill:url(#linearGradient60)" d="m33.273 6.368c-0.371-1.246-2.168-2.277-5.378-3.09-3.215-0.84-6.899-1.23-11.047-1.168-4.149 0.031-7.567 0.5-10.25 1.402-2.653 0.907-3.774 1.969-3.368 3.184 0.407 1.215 2.215 2.246 5.43 3.09 3.211 0.808 6.895 1.199 11.043 1.168 4.149-0.063 7.551-0.528 10.203-1.403 2.653-0.906 3.774-1.964 3.367-3.183z" inkscape:connector-curvature="0"/>
          </g>
        </g>
      </g>
      <path id="path68" style="fill-rule:evenodd;fill:#915922" d="m26.582 10.813c0.125 0.375 0.391 0.719 0.797 1.031 0.375 0.313 0.687 0.469 0.937 0.469 0.219 0 0.407-0.203 0.559-0.609 0.156-0.344 0.234-0.656 0.234-0.938 0-0.187-0.328-0.218-0.98-0.093-0.844 0.125-1.359 0.171-1.547 0.14z" inkscape:connector-curvature="0"/>
      <path id="path70" style="fill-rule:evenodd;fill:#7d4e1e" d="m28.875 10.02c0 0.809-0.047 1.34-0.141 1.59l-0.422 0.703 0.61-0.094c0.406-0.125 0.672-0.312 0.797-0.562 0.219-0.375 0.297-0.844 0.234-1.402l-1.078-0.235z" inkscape:connector-curvature="0"/>
      <path id="path72" style="fill-rule:evenodd;fill:#915922" d="m10.438 11.423c-0.094 0.312-0.141 0.828-0.141 1.546 0 0.188 0.141 0.325 0.422 0.418 0.156 0.063 0.328 0.125 0.515 0.188 0.125 0.125 0.559 0.016 1.309-0.328v-0.84l-2.105-0.984z" inkscape:connector-curvature="0"/>
      <path id="path74" style="fill-rule:evenodd;fill:#7d4e1e" d="m13.199 11.469c-0.437 0.813-0.812 1.34-1.125 1.59-0.187 0.157-0.515 0.235-0.98 0.235l-0.656-0.047 0.562 0.328c0.402 0.25 0.715 0.375 0.934 0.375 0.25 0 0.64-0.172 1.171-0.516 0.465-0.343 0.731-0.574 0.793-0.699 0.032-0.156-0.199-0.578-0.699-1.266z" inkscape:connector-curvature="0"/>
      <path id="path76" style="fill-rule:evenodd;fill:#cfa146" d="m30.375 6.602-1.359-0.234 0.234-0.234c0.094-0.219-0.078-0.465-0.516-0.747-0.687-0.468-1.433-0.703-2.246-0.703-0.562 0.219-0.953 0.36-1.168 0.422-0.25 0.094-0.578 0.11-0.984 0.047-0.531-0.094-0.906-0.297-1.121-0.609-0.219-0.344-0.422-0.578-0.61-0.7-0.125-0.062-0.328-0.093-0.609-0.093l-2.34-0.047c-0.156 0-0.297 0.062-0.422 0.187-0.125 0.153-0.187 0.278-0.187 0.371 0 0.125-0.246 0.329-0.746 0.61-1.656-0.094-2.903-0.219-3.746-0.375-0.59-0.094-0.918-0.141-0.981-0.141-0.062 0-0.219 0.047-0.469 0.141-0.312 0.125-0.546 0.219-0.703 0.281-0.25 0.094-0.453 0.125-0.609 0.094-1.371-0.406-2.152-0.516-2.34-0.328-0.433 0.437-0.652 0.734-0.652 0.89 0.031 0.157 0.031 0.266 0 0.328-0.063 0.157-0.266 0.25-0.61 0.282-0.937 0.09-1.515 0.355-1.73 0.793-0.125 0.25-0.172 0.703-0.141 1.359 0.059 0.715 0.278 1.121 0.653 1.215 0.125 0.031 0.281 0.172 0.468 0.422 0.157 0.187 0.344 0.281 0.563 0.281 0.625 0 0.937 0.187 0.937 0.559 0 0.343 0.313 0.609 0.934 0.796 0.75 0.125 1.125 0.391 1.125 0.797 0 0.25 0.172 0.516 0.516 0.797 0.343 0.281 0.73 0.403 1.168 0.371 1.187-0.062 1.871-0.125 2.058-0.187 0.438-0.121 0.719-0.09 0.844 0.094 0.094 0.125 0.594 0.25 1.496 0.375 0.313 0.062 0.609 0.015 0.891-0.141 0.187-0.094 0.406-0.231 0.656-0.418 0.219-0.156 0.484-0.281 0.797-0.375l1.168 0.281c0.25 0.094 0.734-0.031 1.449-0.375 0.312-0.125 0.766-0.125 1.359 0 0.344 0.125 0.809 0 1.403-0.375 0.562-0.344 1.109-0.687 1.64-1.031 0.219-0.063 0.731 0.016 1.543 0.234 0.313 0 0.75-0.078 1.309-0.234 0.031 0 0.312-0.063 0.844-0.188 0.281-0.031 0.453-0.125 0.515-0.281 0.032-0.125 0.047-0.449 0.047-0.98 0-0.438 0.031-0.672 0.094-0.703 0.094-0.094 0.558-0.219 1.402-0.375 0.125-0.032 0.172-0.172 0.141-0.422-0.031-0.125-0.063-0.356-0.094-0.699 0-0.438-0.266-0.782-0.797-1.032-0.125-0.062-0.281-0.078-0.469-0.047-0.312 0.032-0.511 0.047-0.605 0.047z" inkscape:connector-curvature="0"/>
      <path id="path78" style="fill-rule:evenodd;fill:#ffe191" d="m5.898 9.458h-1.546c-0.032 0-0.282 0.031-0.747 0.093-0.281 0.032-0.406 0.079-0.375 0.141 0.125 0.313 0.5 0.578 1.125 0.797l1.028 0.371c1.437 0 2.137-0.078 2.105-0.23-0.062-0.161-0.593-0.547-1.59-1.172z" inkscape:connector-curvature="0"/>
      <path id="path80" style="fill-rule:evenodd;fill:#e6c15c" d="m3.277 9.833c0 0.093 0.328 0.14 0.985 0.14 0.496-0.031 0.902-0.062 1.215-0.093 0.156-0.032 0.265-0.282 0.328-0.75 0.062-0.282 0.125-0.688 0.187-1.219 0.031-0.309-0.015-0.465-0.14-0.465-0.219 0.031-0.454 0.078-0.704 0.141-1.027 0.125-1.543 0.203-1.543 0.234l-0.328 1.637v0.375z" inkscape:connector-curvature="0"/>
      <path id="path82" style="fill-rule:evenodd;fill:#cfa146" d="m7.488 10.63v-1.735c0-0.375-0.078-0.625-0.234-0.75-0.125-0.121-0.359-0.277-0.699-0.465-0.375-0.187-0.61-0.25-0.703-0.187-0.094 0.062-0.172 0.219-0.235 0.469l-0.047 0.371c-0.062 0.25-0.093 0.578-0.093 0.984v0.563l1.312 0.515c0.309 0.153 0.543 0.235 0.699 0.235z" inkscape:connector-curvature="0"/>
      <path id="path84" style="fill-rule:evenodd;fill:#e6c15c" d="m7.91 7.54c-0.031-0.156-0.312-0.156-0.844 0-0.558 0.156-0.808 0.422-0.746 0.793 0.028 0.406 0.121 0.718 0.278 0.937 0.156 0.188 0.281 0.235 0.375 0.141 0.031-0.031 0.218-0.094 0.562-0.188 0.313-0.093 0.469-0.172 0.469-0.234 0-0.563-0.031-1.043-0.094-1.449z" inkscape:connector-curvature="0"/>
      <path id="path86" style="fill-rule:evenodd;fill:#e6c15c" d="m4.82 8.196c0.688 0.277 1.235 0.387 1.637 0.328 0.438-0.066 0.844-0.207 1.219-0.426 0.406-0.25 0.609-0.48 0.609-0.699 0-0.875-0.109-1.344-0.328-1.406-1.031-0.219-1.625-0.359-1.781-0.422-0.309-0.094-0.778 0.02-1.403 0.328-0.312 0.125-0.48 0.203-0.511 0.235-0.063 0.062-0.11 0.156-0.141 0.281 0.031 0.344 0.059 0.734 0.09 1.172 0 0.25 0.082 0.418 0.234 0.511 0.063 0.036 0.188 0.067 0.375 0.098z" inkscape:connector-curvature="0"/>
      <path id="path88" style="fill-rule:evenodd;fill:#cfa146" d="m5.992 6.415-0.14 1.078c-0.032 0.094 0.343 0.172 1.121 0.234 0.718 0.063 1.125 0.063 1.218 0 0.094-0.031 0.125-0.281 0.094-0.75 0-0.406-0.031-0.718-0.094-0.937-0.031-0.125-0.062-0.172-0.093-0.141 0 0.063-0.047 0.094-0.141 0.094l-1.777-0.422c-0.157-0.031-0.235 0.063-0.235 0.285 0.063 0.246 0.078 0.434 0.047 0.559z" inkscape:connector-curvature="0"/>
      <path id="path90" style="fill-rule:evenodd;fill:#ffe191" d="m6.461 8.52c0.215 0 0.543-0.094 0.98-0.281 0.407-0.184 0.657-0.355 0.75-0.512 0.094-0.125-0.187-0.25-0.843-0.375-0.563-0.093-1.028-0.14-1.403-0.14-0.156 0-0.437 0.062-0.843 0.187-0.407 0.156-0.625 0.281-0.657 0.375-0.125 0.125-0.172 0.188-0.14 0.188 0 0.062 0.172 0.136 0.515 0.23 0.75 0.219 1.297 0.328 1.641 0.328z" inkscape:connector-curvature="0"/>
      <path id="path92" style="fill-rule:evenodd;fill:#e6c15c" d="m9.125 6.649 0.375-0.281c0.375-0.375 0.562-0.606 0.562-0.699 0-0.344-0.203-0.719-0.609-1.125-0.094-0.063-0.199 0-0.328 0.187-0.156 0.188-0.262 0.422-0.328 0.703-0.059 0.278 0.051 0.684 0.328 1.215z" inkscape:connector-curvature="0"/>
      <path id="path94" style="fill-rule:evenodd;fill:#e6c15c" d="m13.34 4.262-0.985 0.469c-0.25 0.156-0.375 0.25-0.375 0.281l0.329 0.657c0.031 0.156 0.062 0.246 0.093 0.277 0.094 0.063 0.25 0.051 0.469-0.047 0.156-0.094 0.391-0.187 0.699-0.277 0.219-0.094 0.297-0.235 0.235-0.422l-0.465-0.938z" inkscape:connector-curvature="0"/>
      <path id="path96" style="fill-rule:evenodd;fill:#e6c15c" d="m18.301 4.872c0.125 0.25 0.187 0.437 0.187 0.562 0 0.063 0.078 0.094 0.231 0.094 0.156 0 0.265-0.031 0.328-0.094 0.062-0.031 0.094-0.14 0.094-0.328 0-0.187-0.016-0.312-0.047-0.375l-0.047-0.14c-0.188-0.063-0.438 0.031-0.746 0.281z" inkscape:connector-curvature="0"/>
      <path id="path98" style="fill-rule:evenodd;fill:#e6c15c" d="m19.844 3.747c-0.313-0.156-0.578 0.015-0.797 0.515-0.063 0.125-0.047 0.25 0.047 0.375 0.062 0.094 0.172 0.235 0.328 0.422l0.328 0.375 0.141-0.75c0-0.093 0.031-0.265 0.093-0.515 0.032-0.219-0.015-0.36-0.14-0.422z" inkscape:connector-curvature="0"/>
      <path id="path100" style="fill-rule:evenodd;fill:#e6c15c" d="m24.852 5.247c-0.094-0.063-0.094 0.031 0 0.281 0.062 0.215 0.125 0.371 0.187 0.465 0.031 0.125 0.125 0.234 0.281 0.328 0.157 0.125 0.293 0.094 0.418-0.094 0.719-0.808 1.032-1.308 0.938-1.496-0.063-0.156-0.297-0.109-0.703 0.141-0.59 0.375-0.965 0.5-1.121 0.375z" inkscape:connector-curvature="0"/>
      <path id="path102" style="fill-rule:evenodd;fill:#e6c15c" d="m30.375 6.602-1.359-0.234c0 0.031-0.047 0.141-0.141 0.328-0.063 0.125 0 0.25 0.187 0.375 0.157 0.094 0.344 0.25 0.563 0.469 0.187 0.125 0.375 0.203 0.563 0.234 0.281 0 0.578-0.047 0.886-0.14l0.094-0.891v-0.188c-0.156 0.063-0.422 0.079-0.793 0.047z" inkscape:connector-curvature="0"/>
      <path id="path104" style="fill-rule:evenodd;fill:#e6c15c" d="m11.887 9.411c0.343 0 0.578-0.266 0.703-0.797 0.031-0.094-0.203-0.297-0.703-0.609-0.125-0.063-0.282 0.031-0.465 0.285-0.25 0.277-0.422 0.465-0.516 0.558-0.125 0.125-0.078 0.266 0.141 0.422 0.25 0.125 0.527 0.172 0.84 0.141z" inkscape:connector-curvature="0"/>
      <path id="path106" style="fill-rule:evenodd;fill:#e6c15c" d="m8.801 10.344c-0.063 0.032-0.063 0.094 0 0.188 0.062 0.031 0.109 0.078 0.14 0.141v0.234c0 0.219 0.25 0.312 0.747 0.281 0.468-0.031 0.718-0.109 0.75-0.234 0.031-0.125 0.062-0.313 0.093-0.563 0.031-0.125-0.125-0.25-0.469-0.375-0.062-0.027-0.281 0.02-0.652 0.145l-0.609 0.183z" inkscape:connector-curvature="0"/>
      <path id="path108" style="fill-rule:evenodd;fill:#e6c15c" d="m11 12.266c0.094 0.094 0.109 0.25 0.047 0.469 0.094 0.125 0.359 0.156 0.793 0.094l0.515-0.328c0.219-0.125 0.313-0.203 0.282-0.235-0.125-0.093-0.188-0.156-0.188-0.187 0-0.25-0.437-0.297-1.308-0.141-0.25 0.031-0.36 0.078-0.329 0.141 0 0.094 0.063 0.156 0.188 0.187z" inkscape:connector-curvature="0"/>
      <path id="path110" style="fill-rule:evenodd;fill:#e6c15c" d="m15.586 13.341c0.437-0.094 1.043-0.11 1.824-0.047 0.344-0.063 0.453-0.157 0.328-0.282-0.218-0.121-0.359-0.214-0.422-0.277-0.093-0.062-0.64 0-1.636 0.188-0.407 0.089-0.563 0.183-0.469 0.277s0.219 0.141 0.375 0.141z" inkscape:connector-curvature="0"/>
      <path id="path112" style="fill-rule:evenodd;fill:#e6c15c" d="m15.211 11.048c0.219-0.032 0.469-0.235 0.75-0.61 0.25-0.402 0.344-0.652 0.281-0.746-0.125-0.281-0.234-0.469-0.328-0.562-0.094-0.157-0.406-0.094-0.937 0.187-0.469 0.219-0.813 0.422-1.032 0.609-0.121 0.09-0.109 0.293 0.051 0.606 0.184 0.312 0.277 0.5 0.277 0.562 0 0.125 0.313 0.11 0.938-0.046z" inkscape:connector-curvature="0"/>
      <path id="path114" style="fill-rule:evenodd;fill:#e6c15c" d="m14.273 8.426c0.25-0.093 0.563-0.312 0.938-0.652 0.375-0.375 0.516-0.594 0.422-0.656-0.5-0.344-0.813-0.516-0.938-0.516-0.062 0-0.234 0.125-0.515 0.375-0.313 0.282-0.512 0.469-0.606 0.563-0.125 0.125-0.094 0.312 0.094 0.562 0.187 0.246 0.387 0.356 0.605 0.324z" inkscape:connector-curvature="0"/>
      <path id="path116" style="fill-rule:evenodd;fill:#e6c15c" d="m10.156 7.821c0.188-0.062 0.313-0.187 0.375-0.375 0.063-0.187 0.031-0.344-0.093-0.469-0.094-0.125-0.188-0.14-0.282-0.047-0.156 0.219-0.265 0.344-0.328 0.375-0.187 0.094-0.203 0.219-0.047 0.375 0.125 0.157 0.25 0.204 0.375 0.141z" inkscape:connector-curvature="0"/>
      <path id="path118" style="fill-rule:evenodd;fill:#e6c15c" d="m18.723 9.176c0.433-0.062 0.761-0.171 0.98-0.328 0.25-0.187 0.281-0.406 0.094-0.652-0.156-0.219-0.281-0.312-0.375-0.285-0.156 0.035-0.313 0.051-0.465 0.051-0.375-0.032-0.75 0.074-1.125 0.328-0.219 0.152-0.219 0.34 0 0.558 0.219 0.25 0.516 0.36 0.891 0.328z" inkscape:connector-curvature="0"/>
      <path id="path120" style="fill-rule:evenodd;fill:#e6c15c" d="m17.504 7.259c0.281 0.031 0.5-0.047 0.656-0.235 0.156-0.156 0.235-0.312 0.235-0.469 0-0.281-0.391-0.421-1.172-0.421-0.407 0-0.637 0.031-0.703 0.093-0.09 0.032-0.141 0.157-0.141 0.375-0.059 0.407 0.312 0.625 1.125 0.657z" inkscape:connector-curvature="0"/>
      <path id="path122" style="fill-rule:evenodd;fill:#e6c15c" d="m18.254 11.704c1.09-0.125 1.621-0.281 1.59-0.469 0-0.125-0.016-0.312-0.047-0.562-0.063-0.184-0.188-0.262-0.375-0.231-0.594 0.063-1.078 0.168-1.449 0.328-0.219 0.063-0.297 0.231-0.235 0.512 0.063 0.312 0.235 0.453 0.516 0.422z" inkscape:connector-curvature="0"/>
      <path id="path124" style="fill-rule:evenodd;fill:#e6c15c" d="m22.559 11.094c0.218 0 0.515-0.187 0.89-0.558 0.403-0.344 0.559-0.61 0.465-0.797-0.062-0.156-0.125-0.219-0.187-0.188-0.094 0.032-0.2 0.063-0.329 0.094-0.464 0.281-0.902 0.434-1.308 0.465-0.281 0.031-0.344 0.203-0.188 0.516 0.125 0.312 0.344 0.468 0.657 0.468z" inkscape:connector-curvature="0"/>
      <path id="path126" style="fill-rule:evenodd;fill:#e6c15c" d="m21.855 9.317c0.719-0.062 1.079-0.25 1.079-0.562 0-0.282-0.094-0.5-0.282-0.653-0.156-0.125-0.312-0.125-0.468 0-0.219 0.246-0.454 0.449-0.704 0.606-0.312 0.218-0.386 0.39-0.23 0.515 0.121 0.094 0.324 0.125 0.605 0.094z" inkscape:connector-curvature="0"/>
      <path id="path128" style="fill-rule:evenodd;fill:#e6c15c" d="m25.738 8.801c0.719-0.281 1.063-0.546 1.032-0.796-0.032-0.125-0.36-0.262-0.981-0.418-0.254-0.063-0.406-0.047-0.469 0.047-0.093 0.187-0.218 0.308-0.375 0.371-0.281 0.156-0.312 0.359-0.093 0.609 0.25 0.281 0.546 0.344 0.886 0.187z" inkscape:connector-curvature="0"/>
      <path id="path130" style="fill-rule:evenodd;fill:#e6c15c" d="m28.828 9.739c0.344 0 0.641-0.109 0.891-0.328s0.297-0.406 0.14-0.563c-0.187-0.156-0.453-0.281-0.797-0.375-0.187-0.062-0.343 0.016-0.468 0.235-0.094 0.281-0.188 0.468-0.282 0.562-0.089 0.125-0.074 0.235 0.051 0.328 0.125 0.094 0.278 0.141 0.465 0.141z" inkscape:connector-curvature="0"/>
      <path id="path132" style="fill-rule:evenodd;fill:#e6c15c" d="m26.582 10.813c0.344-0.031 0.5-0.125 0.469-0.281-0.031-0.094-0.125-0.231-0.281-0.422-0.094-0.121-0.344-0.121-0.747 0-0.285 0.066-0.531 0.316-0.75 0.75-0.125 0.188-0.046 0.25 0.231 0.188l1.078-0.235z" inkscape:connector-curvature="0"/>
      <path id="path134" style="fill-rule:evenodd;fill:#e6c15c" d="m21.949 12.454c0.25 0 0.344-0.11 0.281-0.328-0.062-0.219-0.203-0.36-0.421-0.422-0.157-0.063-0.282-0.016-0.375 0.14l-0.325 0.61c-0.093 0.125-0.078 0.172 0.047 0.14 0.309-0.093 0.574-0.14 0.793-0.14z" inkscape:connector-curvature="0"/>
      <path id="path136" style="fill-rule:evenodd;fill:#e6c15c" d="m23.398 12.688c0.313 0.028 0.469-0.019 0.469-0.14 0-0.032-0.078-0.141-0.234-0.329-0.094-0.093-0.231-0.093-0.418 0-0.219 0.125-0.36 0.204-0.422 0.231-0.219 0.16-0.016 0.238 0.605 0.238z" inkscape:connector-curvature="0"/>
      <path id="path138" style="fill-rule:evenodd;fill:#e6c15c" d="m26.441 11.282c0.094-0.031 0.344 0 0.75 0.094 0.438 0.093 0.704 0.14 0.797 0.14 0.184 0 0.25-0.062 0.184-0.187-0.063-0.156-0.246-0.313-0.559-0.465-0.281-0.125-0.578-0.082-0.89 0.137-0.438 0.281-0.532 0.375-0.282 0.281z" inkscape:connector-curvature="0"/>
      <path id="path140" style="fill-rule:evenodd;fill:#ffe191" d="m9.125 11.001c-0.063 0-0.078 0.015-0.047 0.047 0 0.031 0.02 0.062 0.047 0.093l0.516 0.328c0.375 0.188 0.718 0.282 1.031 0.282 0.965 0 1.371-0.047 1.215-0.141-0.282-0.219-0.516-0.375-0.699-0.469-0.282-0.187-0.532-0.25-0.75-0.187-0.719 0-1.157 0.015-1.313 0.047z" inkscape:connector-curvature="0"/>
      <path id="path142" style="fill-rule:evenodd;fill:#ffe191" d="m11.047 12.735c0.125 0.371 0.418 0.621 0.887 0.746 0.187 0.063 0.468 0.094 0.843 0.094 0.344 0 0.563-0.047 0.657-0.141l0.187-0.14c-0.062 0-0.203-0.094-0.422-0.282l-0.656-0.609c-0.25 0.281-0.484 0.422-0.703 0.422l-0.793-0.09z" inkscape:connector-curvature="0"/>
      <path id="path144" style="fill-rule:evenodd;fill:#ffe191" d="m15.398 13.341 1.215 0.421c0.188 0.032 0.422 0.079 0.703 0.141 0.219 0.063 0.391 0.031 0.516-0.094l0.375-0.281 0.281-0.141c-0.343-0.093-0.593-0.14-0.75-0.14-1.406 0.094-2.183 0.125-2.34 0.094z" inkscape:connector-curvature="0"/>
      <path id="path146" style="fill-rule:evenodd;fill:#ffe191" d="m16.66 10.579c-0.094-0.278-0.219-0.512-0.375-0.699l-1.074 1.168c-0.063 0.093-0.234 0.125-0.516 0.093l-0.422-0.047c0.032 0.157 0.079 0.297 0.141 0.422 0.094 0.313 0.219 0.469 0.375 0.469 0.375 0.031 0.797-0.016 1.266-0.141 0.402-0.093 0.683-0.203 0.84-0.328 0.125-0.093 0.14-0.234 0.046-0.422-0.031-0.093-0.125-0.265-0.281-0.515z" inkscape:connector-curvature="0"/>
      <path id="path148" style="fill-rule:evenodd;fill:#ffe191" d="m10.766 9.083 0.609 0.609c0.187 0.188 0.516 0.281 0.98 0.281h0.329l-0.516-0.609c-0.309 0.062-0.543 0.047-0.699-0.047l-0.703-0.234z" inkscape:connector-curvature="0"/>
      <path id="path150" style="fill-rule:evenodd;fill:#ffe191" d="m10.25 8.098c0.094 0.094 0.312 0.125 0.656 0.094l-0.562-0.371h-0.188c-0.148-0.031-0.277-0.102-0.398-0.215l0.492 0.492z" inkscape:connector-curvature="0"/>
      <path id="path152" style="fill-rule:evenodd;fill:#ffe191" d="m8.004 8.989c-0.063 0.062-0.281 0.141-0.656 0.234-0.313 0.094-0.438 0.157-0.375 0.188 0.062 0.031 0.172 0.156 0.328 0.375 0.156 0.187 0.297 0.281 0.422 0.281 0.218 0 0.468-0.051 0.75-0.141 0.562-0.062 0.875-0.156 0.937-0.281 0.059-0.094 0.012-0.156-0.144-0.187-0.309-0.094-0.496-0.157-0.559-0.188l-0.703-0.281z" inkscape:connector-curvature="0"/>
      <path id="path154" style="fill-rule:evenodd;fill:#ffe191" d="m17.926 9.176c0.062 0.063 0.14 0.172 0.234 0.329 0.121 0.156 0.25 0.234 0.371 0.234l2.157-0.094-0.797-0.703-0.188-0.141c-0.219 0.094-0.5 0.141-0.844 0.141l-1.168-0.234 0.235 0.468z" inkscape:connector-curvature="0"/>
      <path id="path156" style="fill-rule:evenodd;fill:#ffe191" d="m20.594 12.219-0.703-0.796-0.188-0.141c-0.187 0.156-0.469 0.25-0.84 0.281-0.25 0.031-0.5 0.031-0.75 0l-0.328-0.047 0.422 0.469 0.797 0.465 1.59-0.231z" inkscape:connector-curvature="0"/>
      <path id="path158" style="fill-rule:evenodd;fill:#ffe191" d="m21.062 12.594c-0.187 0.063-0.734 0.122-1.64 0.184 0.844 0.281 1.39 0.391 1.64 0.328 0.215-0.094 0.215-0.262 0-0.512z" inkscape:connector-curvature="0"/>
      <path id="path160" style="fill-rule:evenodd;fill:#ffe191" d="m22.418 11.141 0.844 0.235c0.152 0.093 0.418 0.062 0.793-0.094 0.281-0.188 0.375-0.344 0.281-0.469l-0.375-0.793c-0.281 0.313-0.512 0.516-0.699 0.61l-0.844 0.511z" inkscape:connector-curvature="0"/>
      <path id="path162" style="fill-rule:evenodd;fill:#ffe191" d="m21.156 9.176 0.137 0.188c0.125 0.156 0.266 0.25 0.422 0.281 0.219 0.094 0.469 0.141 0.75 0.141l0.562-0.047-0.14-0.656c-0.282 0.156-0.578 0.218-0.891 0.187l-0.84-0.094z" inkscape:connector-curvature="0"/>
      <path id="path164" style="fill-rule:evenodd;fill:#ffe191" d="m24.711 8.29c-0.094-0.094-0.078 0 0.047 0.277 0.156 0.281 0.297 0.469 0.422 0.563 0.187 0.125 0.39 0.218 0.609 0.281l0.375-0.188c0.371-0.589 0.402-0.843 0.094-0.75-0.219 0.094-0.469 0.125-0.75 0.094-0.344 0-0.61-0.094-0.797-0.277z" inkscape:connector-curvature="0"/>
      <path id="path166" style="fill-rule:evenodd;fill:#ffe191" d="m20.5 5.805c0.312 0.036 0.562-0.031 0.75-0.183 0.184-0.156 0.203-0.297 0.047-0.422-0.156-0.094-0.328-0.109-0.516-0.047-0.031 0-0.25 0.094-0.656 0.281-0.375 0.188-0.25 0.309 0.375 0.371z" inkscape:connector-curvature="0"/>
      <path id="path168" style="fill-rule:evenodd;fill:#ffe191" d="m25.508 6.462c0.75 0.156 1.23 0.234 1.449 0.234 0.563 0 0.797-0.047 0.703-0.141-0.156-0.218-0.406-0.328-0.75-0.328h-0.562c-0.469 0.157-0.746 0.235-0.84 0.235z" inkscape:connector-curvature="0"/>
      <path id="path170" style="fill-rule:evenodd;fill:#ffe191" d="m30.328 8.708c0.184 0.281 0.34 0.422 0.465 0.422 0.156 0 0.422-0.047 0.797-0.141 0.344-0.094 0.547-0.172 0.609-0.23 0.031-0.036-0.015-0.083-0.14-0.145-0.094-0.031-0.094-0.074 0-0.137 0.25-0.093 0.093-0.187-0.469-0.281-0.313-0.281-0.563-0.422-0.75-0.422-0.34 0-0.652-0.015-0.934-0.047-0.281-0.031-0.25 0.125 0.094 0.469l0.328 0.512z" inkscape:connector-curvature="0"/>
      <path id="path172" style="fill-rule:evenodd;fill:#ffe191" d="m30.656 10.813c0.032-0.094-0.047-0.219-0.234-0.375-0.156-0.125-0.313-0.183-0.469-0.183-0.781 0-1.109 0.058-0.984 0.183 0.062 0.067 0.172 0.141 0.328 0.235 0.094 0.093 0.172 0.187 0.234 0.281l0.188 0.281 0.422-0.094c0.281-0.093 0.453-0.203 0.515-0.328z" inkscape:connector-curvature="0"/>
      <path id="path174" style="fill-rule:evenodd;fill:#e6c15c" d="m4.961 4.637c0.375 0.125 0.719 0.172 1.031 0.141 0.809-0.094 1.215-0.219 1.215-0.375 0-0.031 0.047-0.125 0.141-0.281 0.093-0.156 0.125-0.297 0.093-0.422-0.031-0.125-0.125-0.215-0.281-0.277-0.312-0.063-0.484-0.11-0.515-0.141-0.094-0.063-0.219-0.156-0.375-0.281-0.157-0.063-0.329-0.094-0.512-0.094-0.219 0-0.469 0.047-0.75 0.141-0.25 0.125-0.406 0.23-0.469 0.328-0.062 0.156-0.094 0.496-0.094 1.027 0 0.063 0.172 0.141 0.516 0.234z" inkscape:connector-curvature="0"/>
      <path id="path176" style="fill-rule:evenodd;fill:#e6c15c" d="m3.277 6.087c0.438 0 0.766-0.063 0.985-0.188 0.34-0.219 0.386-0.512 0.136-0.887-0.062-0.093-0.187-0.171-0.371-0.234-0.254-0.094-0.453-0.172-0.609-0.234-0.156-0.094-0.281-0.11-0.375-0.047-0.156 0.125-0.281 0.203-0.375 0.234-0.281 0.031-0.422 0.36-0.422 0.985 0 0.246 0.344 0.371 1.031 0.371z" inkscape:connector-curvature="0"/>
      <path id="path178" style="fill-rule:evenodd;fill:#e6c15c" d="m13.711 2.532c0.719-0.031 1.062-0.188 1.031-0.469-0.031-0.156-0.156-0.344-0.375-0.562-0.062-0.188-0.469-0.219-1.215-0.094-0.218 0.031-0.328 0.094-0.328 0.187 0.063 0.094 0.078 0.188 0.047 0.282-0.062 0.125 0 0.265 0.188 0.422 0.187 0.156 0.406 0.234 0.652 0.234z" inkscape:connector-curvature="0"/>
      <path id="path180" style="fill-rule:evenodd;fill:#e6c15c" d="m25.695 4.075c0.871-0.063 1.309-0.219 1.309-0.469 0-0.062 0.016-0.183 0.047-0.371 0.031-0.125 0.015-0.234-0.047-0.328-0.031-0.094-0.453-0.219-1.266-0.375-0.371-0.063-0.84 0.062-1.402 0.375-0.281 0.25-0.281 0.562 0 0.934 0.125 0.187 0.266 0.296 0.422 0.328 0.125 0 0.437-0.032 0.937-0.094z" inkscape:connector-curvature="0"/>
      <path id="path182" style="fill-rule:evenodd;fill:#e6c15c" d="m28.363 4.497c0.34 0 0.668-0.063 0.981-0.188 0.281-0.093 0.422-0.203 0.422-0.328 0-0.094-0.282-0.265-0.844-0.515-0.434 0.062-0.793 0.109-1.074 0.14-0.157 0-0.25 0.047-0.282 0.141v0.328c0 0.281 0.266 0.422 0.797 0.422z" inkscape:connector-curvature="0"/>
      <path id="path184" style="fill-rule:evenodd;fill:#e6c15c" d="m33.836 7.024c0.406-0.094 0.578-0.281 0.516-0.562-0.032-0.157-0.125-0.375-0.282-0.657-0.062-0.214-0.343-0.324-0.84-0.324-0.625 0-0.937 0.141-0.937 0.418 0 0.219 0.094 0.469 0.281 0.75 0.281 0.375 0.699 0.5 1.262 0.375z" inkscape:connector-curvature="0"/>
      <path id="path186" style="fill-rule:evenodd;fill:#cfa146" d="m4.168 5.712c0.219 0.093 0.328-0.016 0.328-0.325 0-0.125-0.035-0.25-0.094-0.375l-0.375-0.234-0.843-0.375 0.093 0.375v0.656l0.469 0.137c0.094 0 0.234 0.051 0.422 0.141z" inkscape:connector-curvature="0"/>
      <path id="path188" style="fill-rule:evenodd;fill:#cfa146" d="m5.898 2.907v0.934l0.657 0.187c0.152 0.031 0.371 0.156 0.652 0.375l0.328-0.703h-0.094c-0.375-0.25-0.64-0.387-0.796-0.418l-0.747-0.375z" inkscape:connector-curvature="0"/>
      <path id="path190" style="fill-rule:evenodd;fill:#cfa146" d="m14.133 1.876 0.422 0.375c0.125 0.093 0.203 0.062 0.234-0.094-0.094-0.219-0.234-0.438-0.422-0.656-0.187-0.188-0.281-0.231-0.281-0.141l0.047 0.516z" inkscape:connector-curvature="0"/>
      <path id="path192" style="fill-rule:evenodd;fill:#cfa146" d="m25.227 2.673 0.14 0.14 0.371 0.559 0.75 0.094 0.516 0.14 0.141-0.512-0.141-0.187c-0.125-0.219-0.375-0.359-0.75-0.422-0.281-0.031-0.527-0.016-0.75 0.047l-0.277 0.141z" inkscape:connector-curvature="0"/>
      <path id="path194" style="fill-rule:evenodd;fill:#cfa146" d="m29.344 4.169c0.125 0.062 0.25 0.062 0.375 0 0.093-0.032 0.093-0.141 0-0.328-0.094-0.125-0.219-0.235-0.375-0.329-0.094-0.062-0.219-0.093-0.375-0.093l-0.235 0.047 0.047 0.14 0.188 0.422h0.093l0.282 0.141z" inkscape:connector-curvature="0"/>
      <path id="path196" style="fill-rule:evenodd;fill:#cfa146" d="m34.211 6.884c0.125 0.031 0.187-0.047 0.187-0.235 0-0.183-0.046-0.344-0.14-0.469l-0.375-0.839v0.187l-0.141 0.652 0.141 0.282c0.094 0.218 0.203 0.359 0.328 0.422z" inkscape:connector-curvature="0"/>
      <path id="path198" style="fill-rule:evenodd;fill:#ffe191" d="m3.277 5.434c-0.281 0.157-0.468 0.231-0.562 0.231l-0.469 0.047c-0.062 0.218 0.141 0.343 0.609 0.375 0.625 0.031 1.094-0.032 1.407-0.188l0.183-0.137-1.168-0.328z" inkscape:connector-curvature="0"/>
      <path id="path200" style="fill-rule:evenodd;fill:#ffe191" d="m5.898 3.841v-0.047l-0.703 0.375-0.75 0.234 1.125 0.375c0.844 0 1.309-0.016 1.403-0.047 0.187-0.094 0.265-0.203 0.234-0.328l-0.84-0.375c-0.187-0.125-0.344-0.187-0.469-0.187z" inkscape:connector-curvature="0"/>
      <path id="path202" style="fill-rule:evenodd;fill:#ffe191" d="m14.133 1.876-0.793 0.093h-0.235c-0.343-0.093-0.437-0.062-0.281 0.094 0.344 0.344 0.735 0.5 1.172 0.469 0.402-0.031 0.59-0.125 0.559-0.281l-0.422-0.375z" inkscape:connector-curvature="0"/>
      <path id="path204" style="fill-rule:evenodd;fill:#ffe191" d="m25.738 3.372c-0.402 0.156-0.668 0.312-0.793 0.469l-0.375 0.234 0.141 0.094c0.156 0.062 0.344 0.062 0.562 0 1.122-0.188 1.684-0.328 1.684-0.422 0-0.219-0.234-0.328-0.699-0.328l-0.52-0.047z" inkscape:connector-curvature="0"/>
      <path id="path206" style="fill-rule:evenodd;fill:#ffe191" d="m27.613 4.262 0.188 0.094c0.187 0.094 0.375 0.141 0.562 0.141 0.309-0.031 0.762-0.141 1.356-0.328l-0.75-0.141-1.356 0.234z" inkscape:connector-curvature="0"/>
      <path id="path208" style="fill-rule:evenodd;fill:#ffe191" d="m32.34 6.368 0.14 0.281c0.125 0.219 0.282 0.344 0.465 0.375 0.282 0.063 0.703 0.016 1.266-0.14l-0.469-0.704c-0.156 0.125-0.344 0.188-0.562 0.188h-0.84z" inkscape:connector-curvature="0"/>
      <path id="path210" style="fill-rule:evenodd;fill:#915922" d="m10.766 3.278c0.062-0.215 0.046-0.434-0.047-0.652-0.157-0.282-0.375-0.344-0.657-0.188-1.402 0.375-2.167 0.61-2.292 0.703-0.063 0.032-0.125 0.282-0.188 0.746-0.031 0.469-0.062 0.735-0.094 0.797-0.093 0.438 0.141 0.657 0.703 0.657 1.184 0 1.825-0.063 1.918-0.188 0.032-0.031 0.25-0.656 0.657-1.875z" inkscape:connector-curvature="0"/>
      <path id="path212" style="fill-rule:evenodd;fill:#7d4e1e" d="m11.281 2.719c-0.656-0.312-0.984-0.421-0.984-0.328l-0.047 1.965-0.141 0.797 0.938 0.469c0.562 0.246 0.996 0.402 1.308 0.465l0.094-1.965c0-0.188 0.047-0.391 0.141-0.61l-1.309-0.793z" inkscape:connector-curvature="0"/>
      <path id="path214" style="fill-rule:evenodd;fill:#b36f2b" d="m9.453 6.415 1.5-0.235c0.469 0 0.887-0.046 1.262-0.14l-2.106-0.887c-0.375 0-0.714 0.031-1.027 0.094l-1.594-0.094 0.328 0.328c0.219 0.25 0.422 0.422 0.61 0.516 0.281 0.121 0.621 0.262 1.027 0.418z" inkscape:connector-curvature="0"/>
      <path id="path216" style="fill-rule:evenodd;fill:#b36f2b" d="m8.988 10.532c1.09-0.031 1.762-0.188 2.012-0.465 0.188-0.187 0.141-0.375-0.141-0.562l-1.265-0.938-2.34 0.984c-0.188 0.125 0 0.329 0.562 0.61 0.344 0.25 0.735 0.371 1.172 0.371z" inkscape:connector-curvature="0"/>
      <path id="path218" style="fill-rule:evenodd;fill:#7d4e1e" d="m11.094 8.426c-0.5-0.402-0.813-0.683-0.938-0.839-0.125-0.157-0.234-0.25-0.328-0.282-0.156 0.469-0.234 0.793-0.234 0.985v0.324l0.89 0.703c0.219 0.156 0.391 0.406 0.516 0.75l0.141-0.984c0.031-0.188 0.015-0.407-0.047-0.657z" inkscape:connector-curvature="0"/>
      <path id="path220" style="fill-rule:evenodd;fill:#915922" d="m9.125 8.848 0.469-0.234 0.187-0.793 0.047-0.516c-0.902-0.468-1.34-0.515-1.308-0.14 0.031 0.312-0.141 0.594-0.516 0.844l-0.516 0.324c0.032 0.062 0 0.234-0.093 0.515l-0.141 0.703 1.871-0.703z" inkscape:connector-curvature="0"/>
      <path id="path222" style="fill-rule:evenodd;fill:#b36f2b" d="m23.027 4.356c0.934-0.031 1.246-0.25 0.934-0.656-0.219-0.25-0.606-0.5-1.168-0.75-0.281-0.121-0.766-0.106-1.449 0.051-0.719 0.156-1.156 0.25-1.313 0.277-0.156 0.031-0.125 0.156 0.094 0.375 0.25 0.281 0.375 0.453 0.375 0.516 0 0.187 0.84 0.25 2.527 0.187z" inkscape:connector-curvature="0"/>
      <path id="path224" style="fill-rule:evenodd;fill:#915922" d="m22.09 1.735c-0.156 0.125-0.406 0.219-0.75 0.281-0.434 0.094-0.699 0.157-0.793 0.188-0.219 0.062-0.359 0.109-0.422 0.14-0.125 0.032-0.187 0.094-0.187 0.188l-0.047 0.84 1.777-0.231 0.422-0.14 0.375-0.051 0.14-1.121c0-0.125-0.046-0.219-0.14-0.281-0.125-0.032-0.25 0.031-0.375 0.187z" inkscape:connector-curvature="0"/>
      <path id="path226" style="fill-rule:evenodd;fill:#7d4e1e" d="m24.195 2.673c-0.062-0.157-0.187-0.282-0.375-0.375-0.312-0.125-0.48-0.204-0.515-0.235l-0.981-0.469v0.75l0.141 0.61 0.797 0.422 0.371 0.281 0.375 0.465 0.14-0.512c0.094-0.41 0.11-0.719 0.047-0.937z" inkscape:connector-curvature="0"/>
      <path id="path228" style="fill-rule:evenodd;fill:#b36f2b" d="m22.746 13.481c1.027-0.437 1.777-0.933 2.246-1.496l-0.469-0.047c-0.218-0.031-1.136-0.203-2.761-0.515-0.469-0.063-0.782 0.078-0.934 0.421-0.156 0.497-0.344 0.918-0.562 1.262-0.282 0.438-0.063 0.672 0.656 0.703 0.652 0.032 1.262-0.078 1.824-0.328z" inkscape:connector-curvature="0"/>
      <path id="path230" style="fill-rule:evenodd;fill:#915922" d="m20.219 13.622 0.843-1.965-0.187-1.078c0-0.125-0.094-0.078-0.281 0.14-0.406 0.688-0.641 1.125-0.703 1.313 0.031 0.281 0.047 0.516 0.047 0.699 0 0.188 0.093 0.485 0.281 0.891z" inkscape:connector-curvature="0"/>
      <path id="path232" style="fill-rule:evenodd;fill:#7d4e1e" d="m23.496 11.938c0.527 0.063 1.027 0.078 1.496 0.047l-0.094-0.516-1.308-0.515c-1.094-0.188-1.813-0.344-2.156-0.469-0.215-0.094-0.372-0.109-0.465-0.047l-0.094 0.141 0.187 1.078 0.7-0.234c0.125-0.032 0.359 0.031 0.703 0.187 0.437 0.188 0.781 0.297 1.031 0.328z" inkscape:connector-curvature="0"/>
      <path id="path234" style="fill-rule:evenodd;fill:#915922" d="m31.496 9.317c0.813-0.281 1.156-0.625 1.031-1.027 0-0.035-0.203-0.313-0.609-0.844-0.125-0.125-0.328-0.125-0.609 0-0.34 0.219-0.59 0.375-0.747 0.465-0.312 0.156-0.468 0.703-0.468 1.64 0 0.25 0.14 0.313 0.422 0.188 0.187-0.063 0.511-0.203 0.98-0.422z" inkscape:connector-curvature="0"/>
      <path id="path236" style="fill-rule:evenodd;fill:#b36f2b" d="m31.355 8.895-1.214 0.891 0.328 0.281c0.277 0.188 0.558 0.293 0.84 0.328 0.656 0.031 1.125-0.094 1.406-0.375l1.168-1.031-1.449-0.469c-0.125-0.062-0.485 0.063-1.079 0.375z" inkscape:connector-curvature="0"/>
      <path id="path238" style="fill-rule:evenodd;fill:#7d4e1e" d="m31.918 7.446 0.516 1.074 0.562 0.235c0.402 0.156 0.699 0.234 0.887 0.234 0.281 0 0.25-0.266-0.094-0.797l-0.23-0.141c-0.157-0.125-0.485-0.296-0.985-0.515-0.531-0.246-0.75-0.277-0.656-0.09z" inkscape:connector-curvature="0"/>
      <path id="path240" style="fill-rule:evenodd;fill:#a87932" d="m12.215 11.751c0.25 0.062 0.734 0.218 1.453 0.468 0.684 0.157 1.121 0.141 1.309-0.046 0.343-0.344 0.312-0.657-0.094-0.938-0.531-0.125-0.887-0.266-1.074-0.422-0.157-0.125-0.532-0.187-1.125-0.187l-0.469 0.562c-0.219 0.281-0.219 0.469 0 0.563z" inkscape:connector-curvature="0"/>
      <path id="path242" style="fill-rule:evenodd;fill:#a87932" d="m14.648 4.216c1.653 0.531 2.575 0.625 2.762 0.281 0.094-0.156-0.031-0.406-0.375-0.75-0.344-0.281-0.605-0.422-0.797-0.422-0.902 0-1.449 0.031-1.636 0.094-0.282 0.093-0.422 0.25-0.422 0.468 0 0.219 0.156 0.329 0.468 0.329z" inkscape:connector-curvature="0"/>
      <path id="path244" style="fill-rule:evenodd;fill:#a87932" d="m21.293 5.622c-0.281 0.152-0.125 0.605 0.469 1.355 0.625 0.719 1.125 1.09 1.5 1.121 0.558 0.032 0.84-0.371 0.84-1.214 0-0.407-0.157-0.657-0.469-0.75l-1.168-0.7c-0.156-0.093-0.36-0.093-0.61 0-0.281 0.094-0.468 0.157-0.562 0.188z" inkscape:connector-curvature="0"/>
      <path id="path246" style="fill-rule:evenodd;fill:#a87932" d="m29.906 4.591 0.699 0.375c0.5 0.281 0.875 0.437 1.125 0.468 0.5 0.125 0.922 0.063 1.262-0.187 0.344-0.188 0.344-0.438 0-0.75l-0.465-0.141c-0.468-0.156-0.906-0.234-1.312-0.234-0.777 0-1.215 0.156-1.309 0.469z" inkscape:connector-curvature="0"/>
      <g id="g248">
        <g id="g250">
          <g id="g256">
            <path id="path264" style="fill-rule:evenodd;fill:url(#radialGradient258)" d="m23.168 8.426c0.59-0.531 0.793-1.027 0.605-1.496-0.062-0.187-0.265-0.406-0.605-0.656-0.344-0.215-0.531-0.359-0.563-0.418-0.156-0.285-0.484-0.375-0.984-0.285l-0.328 0.051c-0.371 0.09-0.527 0.402-0.465 0.933 0 0.5 0.016 0.844 0.047 1.032 0.031 0.281 0.199 0.511 0.516 0.699 0.871 0.437 1.464 0.484 1.777 0.14z" inkscape:connector-curvature="0"/>
          </g>
        </g>
      </g>
      <g id="g266">
        <g id="g268">
          <g id="g274">
            <path id="path282" style="fill-rule:evenodd;fill:url(#radialGradient276)" d="m23.168 8.29c0.094-0.254 0.062-0.485-0.094-0.703-0.031-0.063-0.172-0.219-0.422-0.469-0.156-0.25-0.297-0.453-0.422-0.609-0.25-0.282-0.562-0.434-0.937-0.469-0.313-0.031-0.496 0.051-0.559 0.234v0.656c0 0.407 0.032 0.657 0.094 0.75 0.094 0.282 0.391 0.516 0.887 0.7 0.531 0.187 0.89 0.265 1.078 0.234 0.187 0 0.312-0.109 0.375-0.324z" inkscape:connector-curvature="0"/>
          </g>
        </g>
      </g>
      <g id="g284">
        <g id="g286">
          <g id="g292">
            <path id="path300" style="fill-rule:evenodd;fill:url(#radialGradient294)" d="m13.898 11.188c-0.402 0-0.621-0.015-0.652-0.047-0.25-0.156-0.594-0.062-1.031 0.282l-0.188 0.234c-0.062 0.062-0.109 0.156-0.14 0.281-0.063 0.25 0.015 0.496 0.234 0.746 0.188 0.188 0.375 0.469 0.563 0.844 0.187 0.219 0.453 0.313 0.793 0.281 0.968-0.062 1.515-0.328 1.64-0.797 0.125-0.781 0.016-1.308-0.328-1.589-0.187-0.157-0.484-0.235-0.891-0.235z" inkscape:connector-curvature="0"/>
          </g>
        </g>
      </g>
      <g id="g302">
        <g id="g304">
          <g id="g310">
            <path id="path318" style="fill-rule:evenodd;fill:url(#radialGradient312)" d="m15.023 12.872c-0.062-0.371-0.421-0.606-1.078-0.699-0.246-0.125-0.465-0.219-0.652-0.282-0.375-0.125-0.734-0.093-1.078 0.094-0.25 0.156-0.356 0.313-0.328 0.469 0 0.062 0.109 0.262 0.328 0.605 0.219 0.313 0.375 0.516 0.469 0.61 0.281 0.156 0.671 0.187 1.171 0.093 0.528-0.125 0.872-0.25 1.028-0.375 0.125-0.125 0.172-0.293 0.14-0.515z" inkscape:connector-curvature="0"/>
          </g>
        </g>
      </g>
      <g id="g320">
        <g id="g322">
          <g id="g328">
            <path id="path336" style="fill-rule:evenodd;fill:url(#radialGradient330)" d="m14.648 5.946c0.188 0.25 0.469 0.359 0.844 0.328 0.965-0.062 1.512-0.344 1.637-0.84 0.187-0.75 0.078-1.281-0.328-1.593-0.188-0.157-0.481-0.235-0.891-0.235-0.433 0-0.668-0.015-0.699-0.047-0.25-0.156-0.594-0.062-1.031 0.282l-0.184 0.234c-0.316 0.281-0.285 0.625 0.094 1.031 0.183 0.219 0.371 0.5 0.558 0.84z" inkscape:connector-curvature="0"/>
          </g>
        </g>
      </g>
      <g id="g338">
        <g id="g340">
          <g id="g346">
            <path id="path354" style="fill-rule:evenodd;fill:url(#radialGradient348)" d="m15.258 4.309c-0.375-0.125-0.735-0.093-1.078 0.094-0.25 0.156-0.356 0.313-0.325 0.469 0 0.062 0.11 0.265 0.325 0.609 0.218 0.344 0.375 0.543 0.468 0.61 0.282 0.183 0.672 0.214 1.172 0.089 0.559-0.121 0.918-0.25 1.075-0.371 0.125-0.093 0.171-0.265 0.14-0.515-0.062-0.375-0.437-0.61-1.125-0.703-0.246-0.125-0.465-0.219-0.652-0.282z" inkscape:connector-curvature="0"/>
          </g>
        </g>
      </g>
      <g id="g356">
        <g id="g358">
          <g id="g364">
            <path id="path372" style="fill-rule:evenodd;fill:url(#radialGradient366)" d="m32.434 5.946c0.437-0.371 0.531-0.715 0.281-1.027l-0.188-0.235c-0.093-0.125-0.25-0.234-0.468-0.328-0.188-0.094-0.344-0.125-0.469-0.094-0.75-0.156-1.278-0.14-1.59 0.047-0.438 0.313-0.625 0.828-0.562 1.547 0.031 0.5 0.531 0.856 1.5 1.074 0.339 0.063 0.621-0.015 0.839-0.234 0.125-0.125 0.344-0.375 0.657-0.75z" inkscape:connector-curvature="0"/>
          </g>
        </g>
      </g>
      <g id="g374">
        <g id="g376">
          <g id="g382">
            <path id="path390" style="fill-rule:evenodd;fill:url(#radialGradient384)" d="m30.562 6.79c0.5 0.156 0.887 0.172 1.168 0.047 0.157-0.063 0.344-0.25 0.563-0.563 0.25-0.344 0.391-0.512 0.422-0.512 0.062-0.187-0.031-0.359-0.281-0.515-0.313-0.219-0.657-0.313-1.032-0.281-0.343 0.125-0.578 0.187-0.699 0.187-0.687 0.094-1.078 0.297-1.172 0.609-0.062 0.215-0.047 0.387 0.047 0.512 0.125 0.125 0.453 0.297 0.984 0.516z" inkscape:connector-curvature="0"/>
          </g>
        </g>
      </g>
      <path id="path392" style="fill-rule:evenodd;fill:#e6c15c" d="m12.168 3.841c1.062-0.063 1.594-0.297 1.594-0.7 0.031-0.156 0-0.265-0.094-0.328-0.125-0.094-0.25-0.172-0.375-0.234-0.25-0.125-0.516-0.328-0.797-0.61-0.156-0.093-0.578 0.032-1.266 0.375-0.277 0.063-0.453 0.297-0.511 0.704 0 0.25 0.074 0.402 0.23 0.464 0.094 0 0.281 0.063 0.563 0.188 0.281 0.125 0.5 0.172 0.656 0.141z" inkscape:connector-curvature="0"/>
      <path id="path394" style="fill-rule:evenodd;fill:#cfa146" d="m13.527 3.512 0.141-0.089c0.094-0.094 0.125-0.188 0.094-0.282 0-0.156-0.032-0.281-0.094-0.375l-0.797-0.468c-0.187-0.125-0.312-0.235-0.375-0.329-0.094 0.125-0.141 0.25-0.141 0.375l-0.093 0.469 0.515 0.235c0.282 0.093 0.532 0.25 0.75 0.464z" inkscape:connector-curvature="0"/>
      <path id="path396" style="fill-rule:evenodd;fill:#ffe191" d="m12.262 2.813-0.188 0.094-0.605 0.137-0.75 0.281 0.797 0.422c0.375 0.156 0.652 0.219 0.839 0.187 0.782-0.125 1.172-0.265 1.172-0.422 0-0.121-0.422-0.355-1.265-0.699z" inkscape:connector-curvature="0"/>
      <path id="path398" style="fill-rule:evenodd;fill:#000000;fill-opacity:.30980" d="m21.574 5.79c-0.215-0.133-0.347-0.387-0.402-0.758v-0.281c0-0.028 0.027-0.039 0.082-0.039-1.281-0.188-2.492-0.336-3.641-0.442-0.215 0.348-0.386 0.614-0.519 0.801-0.321 0.426-0.653 0.668-1 0.719-0.563 0.054-0.989-0.067-1.282-0.36-0.187-0.132-0.464-0.574-0.839-1.32-1.625 0.055-3.133 0.215-4.52 0.481-4.773 0.933-7.32 1.851-7.641 2.761l26.399-0.32-2.156-1.281c-0.59-0.16-1.149-0.309-1.684-0.442-0.613 0.348-1.16 0.547-1.641 0.602-0.531 0.055-0.918 0.012-1.156-0.121z" inkscape:connector-curvature="0"/>
    </g>
    <g id="g400">
      <g id="g402" clip-path="url(#clipPath404)">
        <g id="g408" clip-path="url(#clipPath410)">
          <g id="g414" transform="translate(0 -.35477)">
            <g id="g532">
              <g id="g534" clip-path="url(#clipPath418)">
                <g id="g536">
                  <g id="g538">
                    <g id="g540">
                      <g id="g542">
                        <path id="path544" style="fill-rule:evenodd;fill:url(#linearGradient426)" d="m32.891 11.07c-0.399-1.601-2.352-2.988-5.852-4.156-3.5-1.203-7.512-1.824-12.035-1.859-4.524-0.039-8.234 0.504-11.133 1.625-2.926 1.086-4.187 2.433-3.785 4.031 0.398 1.601 2.332 2.988 5.805 4.156 3.5 1.172 7.511 1.774 12.035 1.817 4.527 0.035 8.25-0.489 11.179-1.579 2.926-1.089 4.188-2.433 3.786-4.035z" inkscape:connector-curvature="0"/>
                      </g>
                    </g>
                  </g>
                  <g id="g546">
                    <g id="g548">
                      <g id="g550">
                        <path id="path552" style="fill-rule:evenodd;fill:url(#linearGradient436)" d="m32.883 11.539c-0.406-1.477-2.36-2.754-5.86-3.832-3.472-1.074-7.472-1.633-11.996-1.672-4.523-0.07-8.246 0.41-11.172 1.438-2.925 0.996-4.187 2.23-3.781 3.707 0.403 1.476 2.34 2.754 5.813 3.828 3.504 1.078 7.515 1.637 12.039 1.676 4.527 0.035 8.25-0.442 11.176-1.438 2.921-0.996 4.183-2.234 3.781-3.707z" inkscape:connector-curvature="0"/>
                      </g>
                    </g>
                  </g>
                  <g id="g554">
                    <g id="g556">
                      <g id="g558">
                        <path id="path560" style="fill-rule:evenodd;fill:url(#linearGradient446)" d="m31.52 11.789c-0.348-1.258-2.118-2.328-5.313-3.211-3.195-0.91-6.867-1.383-11.019-1.414-4.149-0.062-7.575 0.332-10.278 1.176-2.672 0.844-3.816 1.879-3.437 3.105 0.379 1.227 2.164 2.297 5.359 3.211 3.195 0.883 6.867 1.352 11.016 1.414 4.148 0.032 7.558-0.359 10.23-1.175 2.672-0.844 3.82-1.879 3.442-3.106z" inkscape:connector-curvature="0"/>
                      </g>
                    </g>
                  </g>
                  <path id="path562" style="fill-rule:evenodd;fill:#915922" d="m24.73 16.082c0.114 0.379 0.372 0.727 0.77 1.047 0.367 0.324 0.676 0.484 0.926 0.492 0.219 0.004 0.41-0.195 0.574-0.598 0.164-0.339 0.25-0.648 0.258-0.929 0.004-0.188-0.324-0.227-0.985-0.117-0.843 0.109-1.359 0.14-1.543 0.105z" inkscape:connector-curvature="0"/>
                  <path id="path564" style="fill-rule:evenodd;fill:#7d4e1e" d="m27.039 15.34c-0.019 0.812-0.078 1.34-0.176 1.586l-0.437 0.695 0.609-0.082c0.41-0.113 0.68-0.297 0.809-0.543 0.226-0.367 0.316-0.836 0.265-1.398l-1.07-0.258z" inkscape:connector-curvature="0"/>
                  <path id="path566" style="fill-rule:evenodd;fill:#915922" d="m8.57 16.332c-0.097 0.309-0.156 0.824-0.172 1.543-0.007 0.187 0.133 0.328 0.411 0.43 0.156 0.066 0.324 0.133 0.511 0.199 0.121 0.125 0.559 0.027 1.317-0.301l0.019-0.84-2.086-1.031z" inkscape:connector-curvature="0"/>
                  <path id="path568" style="fill-rule:evenodd;fill:#7d4e1e" d="m11.332 16.441c-0.453 0.801-0.84 1.321-1.16 1.567-0.188 0.148-0.52 0.219-0.988 0.211l-0.653-0.063 0.555 0.34c0.398 0.258 0.707 0.391 0.926 0.395 0.25 0.007 0.644-0.157 1.183-0.489 0.473-0.332 0.743-0.558 0.809-0.683 0.035-0.157-0.188-0.582-0.672-1.278z" inkscape:connector-curvature="0"/>
                  <path id="path570" style="fill-rule:evenodd;fill:#cfa146" d="m28.613 11.957-1.351-0.266 0.238-0.226c0.098-0.215-0.07-0.469-0.5-0.762-0.676-0.48-1.418-0.73-2.23-0.75-0.567 0.207-0.958 0.34-1.176 0.395-0.254 0.09-0.582 0.097-0.985 0.027-0.531-0.105-0.898-0.32-1.109-0.637-0.211-0.347-0.41-0.586-0.594-0.715-0.125-0.062-0.324-0.097-0.605-0.105l-2.34-0.098c-0.156-0.004-0.297 0.055-0.422 0.176-0.129 0.152-0.195 0.277-0.199 0.371 0 0.125-0.254 0.321-0.762 0.59-1.648-0.129-2.894-0.281-3.734-0.457-0.59-0.105-0.918-0.16-0.981-0.164-0.062 0-0.218 0.043-0.468 0.133-0.317 0.117-0.551 0.203-0.707 0.265-0.254 0.086-0.458 0.114-0.614 0.078-1.363-0.437-2.14-0.562-2.332-0.378-0.445 0.425-0.672 0.718-0.676 0.875 0.032 0.156 0.028 0.265-0.004 0.328-0.066 0.152-0.273 0.242-0.617 0.265-0.937 0.071-1.519 0.325-1.75 0.754-0.129 0.25-0.187 0.699-0.168 1.356 0.047 0.718 0.254 1.129 0.625 1.23 0.125 0.035 0.278 0.18 0.461 0.434 0.153 0.191 0.336 0.289 0.555 0.293 0.625 0.011 0.934 0.207 0.926 0.582-0.008 0.344 0.297 0.613 0.918 0.816 0.746 0.141 1.113 0.414 1.105 0.821-0.008 0.25 0.156 0.519 0.496 0.808 0.336 0.289 0.723 0.422 1.16 0.399 1.188-0.036 1.875-0.083 2.063-0.141 0.441-0.117 0.719-0.078 0.84 0.113 0.09 0.125 0.59 0.262 1.488 0.406 0.313 0.071 0.609 0.028 0.895-0.121 0.187-0.09 0.41-0.222 0.664-0.406 0.222-0.152 0.492-0.269 0.804-0.355l1.164 0.304c0.247 0.102 0.731-0.011 1.457-0.34 0.317-0.117 0.766-0.109 1.356 0.032 0.344 0.133 0.812 0.015 1.414-0.344 0.57-0.332 1.121-0.664 1.66-0.992 0.219-0.059 0.734 0.031 1.539 0.265 0.313 0.008 0.75-0.058 1.317-0.203 0.031 0 0.312-0.054 0.843-0.168 0.285-0.027 0.457-0.117 0.524-0.269 0.031-0.125 0.054-0.453 0.066-0.985 0.012-0.433 0.047-0.668 0.11-0.699 0.097-0.09 0.566-0.203 1.414-0.34 0.125-0.031 0.171-0.168 0.148-0.418-0.027-0.129-0.055-0.363-0.078-0.707 0.012-0.433-0.246-0.785-0.773-1.047-0.122-0.062-0.278-0.082-0.465-0.054-0.313 0.023-0.516 0.035-0.61 0.031z" inkscape:connector-curvature="0"/>
                  <path id="path572" style="fill-rule:evenodd;fill:#ffe191" d="m4.078 14.266-1.547-0.036c-0.031 0-0.281 0.028-0.75 0.079-0.281 0.023-0.406 0.07-0.375 0.132 0.117 0.313 0.485 0.59 1.106 0.821l1.019 0.394c1.434 0.035 2.137-0.027 2.11-0.183-0.059-0.161-0.579-0.563-1.563-1.207z" inkscape:connector-curvature="0"/>
                  <path id="path574" style="fill-rule:evenodd;fill:#e6c15c" d="m1.457 14.207-0.008 0.375c-0.004 0.094 0.324 0.148 0.981 0.16 0.5-0.019 0.906-0.039 1.218-0.066 0.157-0.028 0.27-0.274 0.344-0.738 0.067-0.282 0.141-0.684 0.215-1.215 0.039-0.309-0.008-0.469-0.133-0.469-0.219 0.027-0.453 0.066-0.703 0.125-1.031 0.101-1.551 0.168-1.551 0.199l-0.363 1.629z" inkscape:connector-curvature="0"/>
                  <path id="path576" style="fill-rule:evenodd;fill:#cfa146" d="m5.641 15.473 0.039-1.735c0.008-0.371-0.063-0.625-0.215-0.754-0.121-0.125-0.356-0.289-0.692-0.48-0.371-0.195-0.605-0.266-0.699-0.203-0.094 0.058-0.176 0.215-0.246 0.461l-0.055 0.375c-0.066 0.246-0.105 0.574-0.113 0.98l-0.012 0.559 1.297 0.547c0.309 0.16 0.539 0.246 0.696 0.25z" inkscape:connector-curvature="0"/>
                  <path id="path578" style="fill-rule:evenodd;fill:#e6c15c" d="m6.133 12.391c-0.028-0.157-0.309-0.161-0.844-0.016-0.562 0.141-0.82 0.402-0.766 0.777 0.024 0.407 0.11 0.719 0.258 0.942 0.153 0.191 0.278 0.242 0.371 0.148 0.036-0.027 0.223-0.09 0.567-0.172 0.316-0.09 0.472-0.164 0.476-0.222 0.012-0.563-0.011-1.047-0.062-1.457z" inkscape:connector-curvature="0"/>
                  <path id="path580" style="fill-rule:evenodd;fill:#e6c15c" d="m3.027 12.98c0.68 0.293 1.227 0.415 1.633 0.364 0.438-0.055 0.848-0.188 1.227-0.395 0.41-0.242 0.617-0.469 0.621-0.687 0.019-0.875-0.078-1.344-0.297-1.414-1.023-0.239-1.613-0.395-1.766-0.461-0.312-0.098-0.781 0-1.414 0.297-0.312 0.117-0.484 0.191-0.515 0.222-0.067 0.063-0.114 0.156-0.149 0.278 0.024 0.343 0.047 0.734 0.067 1.171-0.004 0.25 0.07 0.422 0.222 0.52 0.063 0.035 0.188 0.07 0.371 0.105z" inkscape:connector-curvature="0"/>
                  <path id="path582" style="fill-rule:evenodd;fill:#cfa146" d="m4.238 11.227-0.164 1.074c-0.035 0.09 0.34 0.176 1.117 0.258 0.719 0.078 1.121 0.086 1.219 0.027 0.094-0.027 0.129-0.277 0.11-0.746 0.007-0.406-0.016-0.719-0.075-0.938-0.027-0.125-0.058-0.175-0.09-0.144 0 0.062-0.046 0.094-0.14 0.09l-1.77-0.461c-0.156-0.035-0.234 0.058-0.238 0.277 0.055 0.25 0.066 0.438 0.031 0.563z" inkscape:connector-curvature="0"/>
                  <path id="path584" style="fill-rule:evenodd;fill:#ffe191" d="m4.66 13.344c0.219 0.004 0.547-0.082 0.988-0.262 0.411-0.176 0.664-0.344 0.762-0.496 0.094-0.125-0.183-0.254-0.836-0.395-0.558-0.105-1.027-0.164-1.398-0.171-0.156-0.004-0.438 0.054-0.848 0.168-0.41 0.148-0.629 0.269-0.664 0.363-0.129 0.121-0.176 0.179-0.144 0.183 0 0.063 0.168 0.141 0.511 0.243 0.742 0.238 1.285 0.359 1.629 0.367z" inkscape:connector-curvature="0"/>
                  <path id="path586" style="fill-rule:evenodd;fill:#e6c15c" d="m7.367 11.531 0.383-0.273c0.383-0.367 0.574-0.594 0.574-0.688 0.008-0.343-0.183-0.722-0.582-1.136-0.09-0.067-0.203-0.004-0.332 0.179-0.16 0.184-0.273 0.414-0.344 0.692-0.066 0.281 0.036 0.687 0.301 1.226z" inkscape:connector-curvature="0"/>
                  <path id="path588" style="fill-rule:evenodd;fill:#e6c15c" d="m11.633 9.238-0.992 0.446c-0.254 0.152-0.383 0.242-0.383 0.273l0.312 0.664c0.028 0.156 0.059 0.25 0.09 0.281 0.09 0.063 0.246 0.051 0.469-0.035 0.156-0.094 0.394-0.179 0.707-0.265 0.219-0.09 0.301-0.227 0.242-0.418l-0.445-0.946z" inkscape:connector-curvature="0"/>
                  <path id="path590" style="fill-rule:evenodd;fill:#e6c15c" d="m16.578 9.957c0.121 0.254 0.18 0.441 0.176 0.566 0 0.063 0.074 0.094 0.23 0.098 0.157 0.004 0.266-0.023 0.328-0.086 0.067-0.031 0.098-0.137 0.102-0.324 0.004-0.188-0.008-0.313-0.039-0.379l-0.043-0.141c-0.184-0.066-0.437 0.024-0.754 0.266z" inkscape:connector-curvature="0"/>
                  <path id="path592" style="fill-rule:evenodd;fill:#e6c15c" d="m18.148 8.867c-0.308-0.16-0.578 0.004-0.808 0.5-0.063 0.121-0.051 0.246 0.039 0.375 0.062 0.094 0.168 0.238 0.32 0.43l0.321 0.379 0.156-0.746c0-0.094 0.035-0.262 0.105-0.512 0.035-0.219-0.008-0.359-0.133-0.426z" inkscape:connector-curvature="0"/>
                  <path id="path594" style="fill-rule:evenodd;fill:#e6c15c" d="m23.121 10.477c-0.094-0.063-0.094 0.031-0.008 0.281 0.059 0.219 0.117 0.379 0.176 0.472 0.031 0.125 0.121 0.235 0.277 0.332 0.153 0.129 0.293 0.102 0.422-0.082 0.735-0.796 1.059-1.289 0.969-1.476-0.059-0.156-0.293-0.117-0.703 0.125-0.602 0.359-0.981 0.476-1.133 0.348z" inkscape:connector-curvature="0"/>
                  <path id="path596" style="fill-rule:evenodd;fill:#e6c15c" d="m28.613 11.957-1.351-0.266c-0.004 0.032-0.051 0.141-0.149 0.329-0.066 0.121-0.008 0.25 0.18 0.378 0.152 0.094 0.336 0.254 0.551 0.481 0.183 0.129 0.371 0.211 0.554 0.242 0.282 0.008 0.579-0.031 0.895-0.117l0.113-0.887 0.004-0.187c-0.16 0.058-0.426 0.066-0.797 0.027z" inkscape:connector-curvature="0"/>
                  <path id="path598" style="fill-rule:evenodd;fill:#e6c15c" d="m10.066 14.352c0.344 0.007 0.586-0.25 0.719-0.782 0.035-0.09-0.195-0.297-0.687-0.621-0.121-0.066-0.282 0.024-0.473 0.27-0.258 0.277-0.43 0.461-0.527 0.551-0.129 0.121-0.086 0.261 0.129 0.425 0.25 0.129 0.527 0.18 0.839 0.157z" inkscape:connector-curvature="0"/>
                  <path id="path600" style="fill-rule:evenodd;fill:#e6c15c" d="m6.957 15.219c-0.062 0.031-0.062 0.093-0.004 0.187 0.063 0.032 0.109 0.082 0.141 0.145l-0.008 0.23c-0.004 0.219 0.242 0.321 0.742 0.301 0.469-0.023 0.723-0.094 0.754-0.219 0.035-0.125 0.07-0.308 0.106-0.558 0.035-0.125-0.118-0.254-0.458-0.387-0.062-0.031-0.281 0.012-0.66 0.129l-0.613 0.172z" inkscape:connector-curvature="0"/>
                  <path id="path602" style="fill-rule:evenodd;fill:#e6c15c" d="m9.117 17.188c0.09 0.093 0.102 0.25 0.035 0.468 0.09 0.125 0.356 0.164 0.793 0.11l0.524-0.313c0.219-0.121 0.316-0.195 0.285-0.23-0.125-0.094-0.184-0.161-0.184-0.192 0.004-0.246-0.429-0.304-1.308-0.168-0.25 0.028-0.36 0.071-0.328 0.133-0.004 0.094 0.058 0.156 0.183 0.192z" inkscape:connector-curvature="0"/>
                  <path id="path604" style="fill-rule:evenodd;fill:#e6c15c" d="m13.676 18.367c0.437-0.086 1.047-0.086 1.828-0.008 0.344-0.054 0.453-0.144 0.332-0.273-0.215-0.129-0.352-0.227-0.414-0.289-0.094-0.067-0.641-0.016-1.641 0.148-0.41 0.086-0.566 0.176-0.476 0.274 0.09 0.093 0.215 0.144 0.371 0.148z" inkscape:connector-curvature="0"/>
                  <path id="path606" style="fill-rule:evenodd;fill:#e6c15c" d="m13.352 16.062c0.218-0.023 0.472-0.222 0.765-0.589 0.258-0.399 0.356-0.649 0.297-0.743-0.121-0.285-0.223-0.472-0.316-0.57-0.09-0.156-0.403-0.101-0.942 0.168-0.472 0.207-0.82 0.402-1.043 0.586-0.125 0.09-0.113 0.293 0.035 0.606 0.18 0.316 0.27 0.507 0.27 0.57-0.004 0.125 0.309 0.117 0.934-0.028z" inkscape:connector-curvature="0"/>
                  <path id="path608" style="fill-rule:evenodd;fill:#e6c15c" d="m12.477 13.422c0.25-0.086 0.566-0.297 0.949-0.633 0.383-0.367 0.527-0.582 0.437-0.644-0.492-0.356-0.801-0.536-0.925-0.536-0.063-0.004-0.235 0.118-0.524 0.364-0.316 0.273-0.523 0.453-0.621 0.547-0.125 0.121-0.102 0.308 0.082 0.562 0.18 0.254 0.383 0.367 0.602 0.34z" inkscape:connector-curvature="0"/>
                  <path id="path610" style="fill-rule:evenodd;fill:#e6c15c" d="m8.371 12.723c0.188-0.059 0.317-0.18 0.383-0.368 0.066-0.183 0.039-0.339-0.082-0.468-0.09-0.125-0.184-0.145-0.281-0.051-0.161 0.215-0.274 0.336-0.336 0.363-0.188 0.09-0.207 0.215-0.055 0.375 0.121 0.16 0.246 0.207 0.371 0.149z" inkscape:connector-curvature="0"/>
                  <path id="path612" style="fill-rule:evenodd;fill:#e6c15c" d="m16.902 14.27c0.442-0.051 0.77-0.153 0.993-0.305 0.253-0.18 0.289-0.399 0.109-0.653-0.152-0.222-0.274-0.316-0.371-0.289-0.156 0.028-0.313 0.039-0.469 0.036-0.371-0.039-0.75 0.062-1.129 0.304-0.223 0.153-0.226 0.336-0.012 0.559 0.211 0.258 0.504 0.371 0.879 0.348z" inkscape:connector-curvature="0"/>
                  <path id="path614" style="fill-rule:evenodd;fill:#e6c15c" d="m15.73 12.324c0.282 0.039 0.5-0.035 0.661-0.219 0.16-0.152 0.242-0.304 0.242-0.46 0.008-0.282-0.379-0.43-1.156-0.45-0.407-0.007-0.641 0.02-0.707 0.078-0.094 0.032-0.141 0.153-0.149 0.372-0.07 0.406 0.301 0.632 1.109 0.679z" inkscape:connector-curvature="0"/>
                  <path id="path616" style="fill-rule:evenodd;fill:#e6c15c" d="m16.379 16.789c1.094-0.101 1.629-0.246 1.601-0.434 0.004-0.125-0.007-0.312-0.035-0.562-0.058-0.188-0.179-0.27-0.367-0.242-0.594 0.051-1.082 0.148-1.457 0.297-0.223 0.054-0.305 0.226-0.246 0.507 0.055 0.313 0.223 0.457 0.504 0.434z" inkscape:connector-curvature="0"/>
                  <path id="path618" style="fill-rule:evenodd;fill:#e6c15c" d="m20.699 16.277c0.219 0.004 0.516-0.175 0.903-0.543 0.41-0.336 0.574-0.597 0.484-0.785-0.059-0.156-0.121-0.222-0.184-0.191-0.093 0.027-0.203 0.058-0.332 0.086-0.472 0.269-0.914 0.414-1.32 0.437-0.281 0.024-0.348 0.196-0.195 0.512 0.117 0.312 0.332 0.477 0.644 0.484z" inkscape:connector-curvature="0"/>
                  <path id="path620" style="fill-rule:evenodd;fill:#e6c15c" d="m20.035 14.48c0.719-0.046 1.082-0.226 1.09-0.535 0.008-0.281-0.082-0.504-0.266-0.664-0.152-0.125-0.308-0.129-0.468-0.008-0.223 0.243-0.461 0.442-0.715 0.59-0.317 0.211-0.399 0.383-0.246 0.512 0.121 0.094 0.324 0.133 0.605 0.105z" inkscape:connector-curvature="0"/>
                  <path id="path622" style="fill-rule:evenodd;fill:#e6c15c" d="m23.93 14.055c0.722-0.266 1.074-0.524 1.047-0.774-0.028-0.125-0.352-0.273-0.973-0.445-0.25-0.066-0.402-0.055-0.469 0.039-0.097 0.184-0.226 0.305-0.383 0.363-0.285 0.153-0.32 0.356-0.105 0.606 0.242 0.289 0.539 0.359 0.883 0.211z" inkscape:connector-curvature="0"/>
                  <path id="path624" style="fill-rule:evenodd;fill:#e6c15c" d="m27 15.059c0.34 0.007 0.641-0.094 0.895-0.309 0.253-0.215 0.304-0.398 0.152-0.559-0.184-0.16-0.445-0.289-0.785-0.39-0.188-0.067-0.344 0.008-0.473 0.222-0.101 0.278-0.199 0.461-0.297 0.555-0.094 0.121-0.082 0.231 0.043 0.328 0.121 0.098 0.277 0.149 0.465 0.153z" inkscape:connector-curvature="0"/>
                  <path id="path626" style="fill-rule:evenodd;fill:#e6c15c" d="m24.73 16.082c0.344-0.023 0.5-0.113 0.473-0.27-0.031-0.093-0.121-0.234-0.273-0.425-0.09-0.129-0.34-0.133-0.746-0.02-0.286 0.059-0.539 0.301-0.766 0.735-0.129 0.183-0.055 0.25 0.227 0.191l1.085-0.211z" inkscape:connector-curvature="0"/>
                  <path id="path628" style="fill-rule:evenodd;fill:#e6c15c" d="m20.059 17.617c0.25 0.008 0.347-0.101 0.289-0.32-0.059-0.219-0.196-0.363-0.41-0.43-0.157-0.066-0.282-0.023-0.379 0.133l-0.34 0.602c-0.098 0.121-0.082 0.168 0.043 0.14 0.312-0.086 0.578-0.129 0.797-0.125z" inkscape:connector-curvature="0"/>
                  <path id="path630" style="fill-rule:evenodd;fill:#e6c15c" d="m21.504 17.883c0.312 0.039 0.469-0.004 0.473-0.129 0-0.031-0.075-0.141-0.227-0.332-0.094-0.098-0.234-0.098-0.422-0.008-0.223 0.117-0.363 0.191-0.426 0.223-0.222 0.152-0.019 0.234 0.602 0.246z" inkscape:connector-curvature="0"/>
                  <path id="path632" style="fill-rule:evenodd;fill:#e6c15c" d="m24.578 16.551c0.094-0.031 0.344 0.008 0.746 0.109 0.434 0.102 0.699 0.156 0.793 0.156 0.188 0.004 0.25-0.054 0.192-0.179-0.063-0.16-0.243-0.321-0.551-0.481-0.281-0.133-0.578-0.094-0.895 0.117-0.441 0.274-0.539 0.364-0.285 0.278z" inkscape:connector-curvature="0"/>
                  <path id="path634" style="fill-rule:evenodd;fill:#ffe191" d="m7.27 15.883c-0.063-0.004-0.079 0.012-0.047 0.043 0 0.031 0.015 0.066 0.047 0.097l0.507 0.34c0.368 0.196 0.711 0.297 1.024 0.301 0.965 0.024 1.371-0.016 1.219-0.113-0.278-0.223-0.508-0.387-0.692-0.485-0.277-0.191-0.523-0.257-0.746-0.203-0.719-0.015-1.152-0.008-1.312 0.02z" inkscape:connector-curvature="0"/>
                  <path id="path636" style="fill-rule:evenodd;fill:#ffe191" d="m9.152 17.656c0.118 0.375 0.407 0.633 0.871 0.77 0.184 0.066 0.465 0.101 0.84 0.109 0.344 0.008 0.563-0.031 0.66-0.125l0.188-0.137c-0.063 0-0.199-0.097-0.414-0.289l-0.641-0.625c-0.258 0.278-0.492 0.411-0.711 0.407l-0.793-0.11z" inkscape:connector-curvature="0"/>
                  <path id="path638" style="fill-rule:evenodd;fill:#ffe191" d="m13.488 18.363 1.207 0.446c0.188 0.039 0.422 0.089 0.7 0.156 0.218 0.07 0.39 0.043 0.519-0.082l0.379-0.274 0.285-0.132c-0.344-0.102-0.59-0.153-0.746-0.157-1.406 0.063-2.187 0.075-2.344 0.043z" inkscape:connector-curvature="0"/>
                  <path id="path640" style="fill-rule:evenodd;fill:#ffe191" d="m14.812 15.629c-0.085-0.281-0.207-0.52-0.359-0.711l-1.101 1.148c-0.063 0.09-0.235 0.118-0.516 0.082l-0.422-0.058c0.031 0.156 0.074 0.297 0.133 0.426 0.086 0.312 0.207 0.472 0.363 0.476 0.375 0.039 0.797 0 1.266-0.113 0.41-0.086 0.691-0.188 0.851-0.309 0.129-0.09 0.145-0.23 0.055-0.422-0.027-0.093-0.117-0.265-0.27-0.519z" inkscape:connector-curvature="0"/>
                  <path id="path642" style="fill-rule:evenodd;fill:#ffe191" d="m8.953 14 0.594 0.621c0.183 0.191 0.508 0.293 0.976 0.305l0.329 0.008-0.5-0.622c-0.317 0.055-0.547 0.036-0.704-0.062l-0.695-0.25z" inkscape:connector-curvature="0"/>
                  <path id="path644" style="fill-rule:evenodd;fill:#ffe191" d="m8.457 13.004c0.094 0.098 0.313 0.133 0.656 0.109l-0.554-0.386-0.188-0.004c-0.144-0.032-0.277-0.106-0.391-0.219l0.477 0.5z" inkscape:connector-curvature="0"/>
                  <path id="path646" style="fill-rule:evenodd;fill:#ffe191" d="m6.195 13.844c-0.066 0.062-0.285 0.136-0.66 0.222-0.316 0.086-0.441 0.145-0.379 0.176 0.059 0.031 0.168 0.16 0.317 0.383 0.152 0.191 0.293 0.285 0.418 0.289 0.214 0.004 0.468-0.035 0.75-0.121 0.562-0.051 0.879-0.137 0.941-0.262 0.066-0.093 0.02-0.156-0.137-0.191-0.308-0.098-0.496-0.164-0.554-0.199l-0.696-0.297z" inkscape:connector-curvature="0"/>
                  <path id="path648" style="fill-rule:evenodd;fill:#ffe191" d="m16.109 14.254c0.059 0.062 0.137 0.176 0.227 0.332 0.121 0.16 0.242 0.238 0.367 0.242l2.156-0.047-0.781-0.719-0.183-0.144c-0.219 0.09-0.504 0.129-0.844 0.121l-1.164-0.258 0.222 0.473z" inkscape:connector-curvature="0"/>
                  <path id="path650" style="fill-rule:evenodd;fill:#ffe191" d="m18.707 17.355-0.684-0.812-0.183-0.145c-0.192 0.153-0.473 0.239-0.848 0.262-0.25 0.028-0.5 0.02-0.75-0.015l-0.324-0.055 0.41 0.476 0.785 0.485 1.594-0.196z" inkscape:connector-curvature="0"/>
                  <path id="path652" style="fill-rule:evenodd;fill:#ffe191" d="m19.168 17.738c-0.188 0.059-0.738 0.11-1.641 0.153 0.836 0.297 1.379 0.418 1.629 0.363 0.219-0.09 0.223-0.262 0.012-0.516z" inkscape:connector-curvature="0"/>
                  <path id="path654" style="fill-rule:evenodd;fill:#ffe191" d="m20.555 16.32 0.84 0.25c0.152 0.098 0.417 0.075 0.796-0.074 0.286-0.184 0.383-0.336 0.293-0.461l-0.359-0.805c-0.285 0.305-0.523 0.504-0.715 0.594l-0.855 0.496z" inkscape:connector-curvature="0"/>
                  <path id="path656" style="fill-rule:evenodd;fill:#ffe191" d="m19.336 14.324 0.137 0.192c0.121 0.16 0.257 0.254 0.414 0.289 0.218 0.097 0.465 0.152 0.746 0.16l0.562-0.035-0.125-0.66c-0.285 0.152-0.582 0.207-0.894 0.168l-0.84-0.114z" inkscape:connector-curvature="0"/>
                  <path id="path658" style="fill-rule:evenodd;fill:#ffe191" d="m22.914 13.516c-0.094-0.094-0.078 0 0.039 0.281 0.152 0.285 0.285 0.476 0.41 0.57 0.184 0.129 0.383 0.231 0.602 0.297l0.379-0.18c0.386-0.582 0.426-0.832 0.109-0.746-0.219 0.09-0.469 0.114-0.75 0.078-0.344-0.011-0.605-0.109-0.789-0.3z" inkscape:connector-curvature="0"/>
                  <path id="path660" style="fill-rule:evenodd;fill:#ffe191" d="m18.758 10.941c0.312 0.039 0.562-0.019 0.754-0.171 0.187-0.149 0.207-0.29 0.054-0.418-0.152-0.098-0.324-0.118-0.511-0.059-0.032 0-0.254 0.09-0.664 0.266-0.379 0.179-0.254 0.308 0.367 0.382z" inkscape:connector-curvature="0"/>
                  <path id="path662" style="fill-rule:evenodd;fill:#ffe191" d="m23.75 11.707c0.746 0.176 1.227 0.262 1.445 0.266 0.563 0.015 0.797-0.028 0.703-0.121-0.148-0.223-0.398-0.34-0.742-0.348l-0.558-0.012c-0.473 0.145-0.754 0.219-0.848 0.215z" inkscape:connector-curvature="0"/>
                  <path id="path664" style="fill-rule:evenodd;fill:#ffe191" d="m28.52 14.062c0.179 0.286 0.332 0.43 0.457 0.43 0.156 0.004 0.421-0.035 0.8-0.121 0.344-0.086 0.547-0.16 0.614-0.219 0.031-0.031-0.016-0.078-0.141-0.144-0.09-0.035-0.09-0.078 0.004-0.141 0.254-0.086 0.098-0.183-0.461-0.289-0.305-0.289-0.551-0.433-0.738-0.441-0.344-0.008-0.657-0.028-0.938-0.067-0.277-0.035-0.25 0.121 0.086 0.473l0.317 0.519z" inkscape:connector-curvature="0"/>
                  <path id="path666" style="fill-rule:evenodd;fill:#ffe191" d="m28.801 16.176c0.031-0.094-0.043-0.223-0.227-0.379-0.152-0.129-0.308-0.195-0.465-0.199-0.777-0.02-1.109 0.039-0.984 0.164 0.059 0.066 0.168 0.144 0.32 0.242 0.09 0.094 0.168 0.191 0.227 0.285l0.183 0.285 0.422-0.086c0.282-0.086 0.457-0.191 0.524-0.312z" inkscape:connector-curvature="0"/>
                  <path id="path668" style="fill-rule:evenodd;fill:#e6c15c" d="m3.25 9.426c0.371 0.133 0.711 0.187 1.023 0.164 0.817-0.078 1.223-0.192 1.227-0.348 0-0.031 0.051-0.125 0.145-0.277 0.097-0.156 0.132-0.293 0.105-0.418s-0.121-0.223-0.277-0.289c-0.309-0.07-0.481-0.117-0.508-0.153-0.094-0.062-0.215-0.16-0.371-0.289-0.153-0.062-0.324-0.097-0.512-0.105-0.219-0.004-0.469 0.039-0.75 0.125-0.254 0.121-0.414 0.226-0.477 0.316-0.066 0.157-0.105 0.5-0.117 1.028 0 0.062 0.168 0.144 0.512 0.246z" inkscape:connector-curvature="0"/>
                  <path id="path670" style="fill-rule:evenodd;fill:#e6c15c" d="m1.531 10.84c0.438 0.008 0.766-0.047 0.989-0.168 0.347-0.211 0.402-0.504 0.16-0.883-0.063-0.098-0.184-0.176-0.371-0.242-0.247-0.102-0.446-0.184-0.602-0.25-0.156-0.094-0.277-0.113-0.375-0.055-0.156 0.121-0.285 0.196-0.379 0.227-0.281 0.023-0.43 0.347-0.441 0.972-0.008 0.25 0.336 0.383 1.019 0.399z" inkscape:connector-curvature="0"/>
                  <path id="path672" style="fill-rule:evenodd;fill:#e6c15c" d="m12.047 7.516c0.715-0.016 1.062-0.164 1.039-0.446-0.027-0.156-0.148-0.347-0.363-0.57-0.059-0.188-0.461-0.227-1.215-0.121-0.219 0.027-0.328 0.086-0.332 0.18 0.062 0.097 0.074 0.191 0.043 0.285-0.067 0.121-0.008 0.265 0.176 0.422 0.183 0.16 0.402 0.242 0.652 0.25z" inkscape:connector-curvature="0"/>
                  <path id="path674" style="fill-rule:evenodd;fill:#e6c15c" d="m23.988 9.328c0.875-0.043 1.317-0.191 1.321-0.441 0.003-0.063 0.023-0.184 0.058-0.371 0.031-0.125 0.02-0.235-0.043-0.328-0.027-0.094-0.445-0.231-1.254-0.403-0.371-0.07-0.843 0.043-1.414 0.344-0.285 0.242-0.293 0.555-0.019 0.933 0.121 0.192 0.258 0.301 0.414 0.336 0.125 0.004 0.437-0.019 0.937-0.07z" inkscape:connector-curvature="0"/>
                  <path id="path676" style="fill-rule:evenodd;fill:#e6c15c" d="m26.648 9.809c0.344 0.007 0.672-0.051 0.985-0.168 0.285-0.086 0.429-0.192 0.429-0.317 0.004-0.094-0.273-0.273-0.832-0.535-0.437 0.055-0.796 0.09-1.078 0.117-0.156-0.004-0.25 0.039-0.285 0.133l-0.004 0.328c-0.008 0.281 0.254 0.43 0.785 0.442z" inkscape:connector-curvature="0"/>
                  <path id="path678" style="fill-rule:evenodd;fill:#e6c15c" d="m32.066 12.457c0.407-0.086 0.582-0.269 0.528-0.551-0.028-0.156-0.117-0.379-0.266-0.66-0.058-0.219-0.336-0.336-0.836-0.348-0.625-0.015-0.937 0.122-0.945 0.399-0.004 0.219 0.082 0.473 0.265 0.758 0.27 0.379 0.688 0.511 1.254 0.402z" inkscape:connector-curvature="0"/>
                  <path id="path680" style="fill-rule:evenodd;fill:#cfa146" d="m2.43 10.484c0.215 0.098 0.328-0.007 0.336-0.32 0.004-0.125-0.028-0.25-0.086-0.379l-0.368-0.238-0.835-0.395 0.085 0.375-0.015 0.657 0.465 0.148c0.093 0.004 0.234 0.055 0.418 0.152z" inkscape:connector-curvature="0"/>
                  <path id="path682" style="fill-rule:evenodd;fill:#cfa146" d="m4.223 7.715-0.02 0.937 0.649 0.2c0.156 0.035 0.371 0.164 0.648 0.39l0.344-0.695h-0.094c-0.367-0.258-0.633-0.406-0.785-0.442l-0.742-0.39z" inkscape:connector-curvature="0"/>
                  <path id="path684" style="fill-rule:evenodd;fill:#cfa146" d="m12.48 6.871 0.415 0.383c0.121 0.094 0.199 0.066 0.234-0.09-0.086-0.219-0.223-0.441-0.406-0.664-0.184-0.191-0.274-0.238-0.278-0.145l0.035 0.516z" inkscape:connector-curvature="0"/>
                  <path id="path686" style="fill-rule:evenodd;fill:#cfa146" d="m23.555 7.914 0.136 0.141 0.36 0.57 0.746 0.109 0.512 0.153 0.152-0.512-0.137-0.187c-0.117-0.223-0.363-0.368-0.738-0.438-0.281-0.039-0.531-0.031-0.75 0.027l-0.281 0.137z" inkscape:connector-curvature="0"/>
                  <path id="path688" style="fill-rule:evenodd;fill:#cfa146" d="m27.359 9.355 0.278 0.145c0.125 0.066 0.25 0.07 0.375 0.008 0.093-0.028 0.097-0.137 0.008-0.324-0.09-0.129-0.215-0.239-0.368-0.336-0.093-0.067-0.218-0.102-0.371-0.106l-0.238 0.043 0.047 0.145 0.176 0.422 0.093 0.003z" inkscape:connector-curvature="0"/>
                  <path id="path690" style="fill-rule:evenodd;fill:#cfa146" d="m32.441 12.324c0.125 0.035 0.192-0.043 0.196-0.23 0.004-0.184-0.043-0.344-0.133-0.469l-0.356-0.852-0.003 0.188-0.153 0.652 0.133 0.282c0.09 0.222 0.195 0.363 0.316 0.429z" inkscape:connector-curvature="0"/>
                  <path id="path692" style="fill-rule:evenodd;fill:#ffe191" d="m1.547 10.184c-0.285 0.148-0.473 0.222-0.567 0.222l-0.468 0.035c-0.067 0.215 0.133 0.348 0.601 0.387 0.621 0.047 1.09-0.008 1.407-0.156l0.191-0.133-1.164-0.355z" inkscape:connector-curvature="0"/>
                  <path id="path694" style="fill-rule:evenodd;fill:#ffe191" d="m4.203 8.652v-0.047l-0.711 0.356-0.754 0.219 1.117 0.398c0.84 0.02 1.309 0.016 1.403-0.016 0.191-0.089 0.269-0.195 0.242-0.324l-0.832-0.39c-0.188-0.129-0.34-0.196-0.465-0.196z" inkscape:connector-curvature="0"/>
                  <path id="path696" style="fill-rule:evenodd;fill:#ffe191" d="m12.48 6.871-0.796 0.074-0.235-0.004c-0.34-0.101-0.433-0.074-0.281 0.086 0.336 0.352 0.723 0.516 1.16 0.493 0.402-0.02 0.594-0.11 0.567-0.266l-0.415-0.383z" inkscape:connector-curvature="0"/>
                  <path id="path698" style="fill-rule:evenodd;fill:#ffe191" d="m24.051 8.625c-0.406 0.148-0.676 0.297-0.805 0.449l-0.379 0.227 0.137 0.097c0.156 0.067 0.344 0.071 0.562 0.012 1.129-0.16 1.692-0.289 1.696-0.383 0.004-0.218-0.227-0.332-0.696-0.343l-0.515-0.059z" inkscape:connector-curvature="0"/>
                  <path id="path700" style="fill-rule:evenodd;fill:#ffe191" d="m25.902 9.559 0.188 0.097c0.183 0.098 0.371 0.149 0.558 0.153 0.313-0.024 0.766-0.125 1.364-0.297l-0.746-0.16-1.364 0.207z" inkscape:connector-curvature="0"/>
                  <path id="path702" style="fill-rule:evenodd;fill:#ffe191" d="m30.582 11.766 0.133 0.285c0.121 0.222 0.273 0.351 0.461 0.387 0.281 0.066 0.699 0.027 1.265-0.114l-0.449-0.711c-0.16 0.121-0.347 0.176-0.566 0.172l-0.844-0.019z" inkscape:connector-curvature="0"/>
                  <path id="path704" style="fill-rule:evenodd;fill:#915922" d="m9.082 8.199c0.066-0.219 0.055-0.437-0.031-0.656-0.153-0.285-0.367-0.352-0.653-0.203-1.41 0.344-2.179 0.562-2.308 0.652-0.063 0.028-0.129 0.278-0.203 0.742-0.043 0.469-0.078 0.735-0.11 0.797-0.105 0.434 0.125 0.657 0.684 0.668 1.187 0.028 1.828-0.019 1.926-0.144 0.031-0.032 0.261-0.649 0.695-1.856z" inkscape:connector-curvature="0"/>
                  <path id="path706" style="fill-rule:evenodd;fill:#7d4e1e" d="m9.609 7.648c-0.648-0.328-0.972-0.441-0.976-0.351l-0.09 1.965-0.156 0.793 0.925 0.488c0.555 0.262 0.989 0.43 1.297 0.496l0.137-1.961c0.008-0.187 0.059-0.39 0.156-0.605l-1.293-0.825z" inkscape:connector-curvature="0"/>
                  <path id="path708" style="fill-rule:evenodd;fill:#b36f2b" d="m7.703 11.305 1.5-0.2c0.469 0.008 0.891-0.027 1.266-0.113l-2.082-0.937c-0.375-0.008-0.719 0.015-1.032 0.07l-1.589-0.129 0.32 0.336c0.211 0.254 0.41 0.43 0.598 0.527 0.277 0.133 0.617 0.278 1.019 0.446z" inkscape:connector-curvature="0"/>
                  <path id="path710" style="fill-rule:evenodd;fill:#b36f2b" d="m7.141 15.41c1.093-0.008 1.769-0.148 2.023-0.422 0.191-0.183 0.148-0.371-0.129-0.566l-1.242-0.965-2.359 0.934c-0.192 0.117-0.008 0.328 0.546 0.621 0.336 0.258 0.723 0.39 1.161 0.398z" inkscape:connector-curvature="0"/>
                  <path id="path712" style="fill-rule:evenodd;fill:#7d4e1e" d="m9.293 13.352c-0.488-0.414-0.797-0.704-0.918-0.864s-0.227-0.254-0.32-0.289c-0.164 0.465-0.25 0.793-0.254 0.981l-0.008 0.328 0.871 0.719c0.215 0.164 0.383 0.414 0.5 0.761l0.164-0.98c0.035-0.188 0.024-0.406-0.035-0.656z" inkscape:connector-curvature="0"/>
                  <path id="path714" style="fill-rule:evenodd;fill:#915922" d="m7.793 13.508 0.203-0.793 0.059-0.516c-0.895-0.484-1.328-0.543-1.305-0.168 0.023 0.313-0.156 0.59-0.535 0.832l-0.524 0.317c0.032 0.062-0.003 0.23-0.101 0.511l-0.156 0.7 1.886-0.661 0.473-0.222z" inkscape:connector-curvature="0"/>
                  <path id="path716" style="fill-rule:evenodd;fill:#b36f2b" d="m21.316 9.547c0.938-0.012 1.254-0.223 0.95-0.633-0.211-0.254-0.594-0.512-1.153-0.777-0.277-0.129-0.761-0.125-1.449 0.015-0.723 0.141-1.16 0.227-1.316 0.254-0.157 0.028-0.129 0.153 0.086 0.375 0.242 0.285 0.363 0.461 0.359 0.524-0.004 0.187 0.836 0.269 2.523 0.242z" inkscape:connector-curvature="0"/>
                  <path id="path718" style="fill-rule:evenodd;fill:#915922" d="m20.438 6.906c-0.157 0.121-0.411 0.211-0.754 0.266-0.438 0.082-0.704 0.14-0.801 0.168-0.219 0.058-0.36 0.101-0.422 0.133-0.125 0.027-0.191 0.086-0.191 0.179l-0.067 0.844 1.781-0.195 0.426-0.133 0.375-0.035 0.168-1.121c0-0.125-0.043-0.219-0.137-0.285-0.121-0.032-0.25 0.027-0.378 0.179z" inkscape:connector-curvature="0"/>
                  <path id="path720" style="fill-rule:evenodd;fill:#7d4e1e" d="m22.523 7.891c-0.058-0.161-0.179-0.286-0.367-0.383-0.308-0.133-0.476-0.215-0.508-0.246l-0.972-0.492-0.016 0.75 0.125 0.613 0.785 0.437 0.371 0.289 0.364 0.477 0.152-0.512c0.102-0.402 0.125-0.715 0.066-0.933z" inkscape:connector-curvature="0"/>
                  <path id="path722" style="fill-rule:evenodd;fill:#b36f2b" d="m20.832 18.664c1.039-0.414 1.801-0.894 2.281-1.445l-0.468-0.059c-0.219-0.035-1.133-0.226-2.75-0.574-0.465-0.074-0.782 0.059-0.946 0.398-0.168 0.496-0.363 0.914-0.59 1.25-0.289 0.43-0.078 0.672 0.641 0.719 0.652 0.043 1.266-0.051 1.832-0.289z" inkscape:connector-curvature="0"/>
                  <path id="path724" style="fill-rule:evenodd;fill:#915922" d="m18.301 18.75 0.887-1.945-0.165-1.082c0.004-0.125-0.089-0.082-0.281 0.132-0.422 0.68-0.664 1.11-0.73 1.297 0.023 0.282 0.035 0.516 0.031 0.7-0.004 0.187 0.082 0.488 0.258 0.898z" inkscape:connector-curvature="0"/>
                  <path id="path726" style="fill-rule:evenodd;fill:#7d4e1e" d="m21.617 17.137c0.528 0.074 1.028 0.101 1.496 0.082l-0.082-0.516-1.301-0.547c-1.085-0.211-1.8-0.383-2.14-0.515-0.215-0.098-0.371-0.118-0.469-0.059l-0.098 0.141 0.165 1.078 0.707-0.215c0.125-0.031 0.359 0.039 0.699 0.199 0.433 0.199 0.773 0.317 1.023 0.352z" inkscape:connector-curvature="0"/>
                  <path id="path728" style="fill-rule:evenodd;fill:#915922" d="m29.676 14.695c0.816-0.261 1.168-0.597 1.051-1.004 0-0.031-0.196-0.316-0.59-0.859-0.121-0.125-0.325-0.129-0.606-0.012-0.347 0.211-0.601 0.364-0.761 0.45-0.317 0.152-0.485 0.695-0.504 1.628-0.004 0.25 0.132 0.317 0.418 0.196 0.187-0.055 0.519-0.192 0.992-0.399z" inkscape:connector-curvature="0"/>
                  <path id="path730" style="fill-rule:evenodd;fill:#b36f2b" d="m29.543 14.273-1.234 0.86 0.32 0.289c0.277 0.191 0.555 0.308 0.836 0.348 0.652 0.042 1.125-0.071 1.41-0.344l1.191-1.004-1.437-0.5c-0.125-0.067-0.484 0.051-1.086 0.351z" inkscape:connector-curvature="0"/>
                  <path id="path732" style="fill-rule:evenodd;fill:#7d4e1e" d="m30.137 12.832 0.492 1.09 0.555 0.246c0.402 0.164 0.699 0.25 0.886 0.254 0.278 0.004 0.254-0.262-0.078-0.797l-0.23-0.148c-0.153-0.125-0.477-0.305-0.969-0.536-0.527-0.261-0.746-0.296-0.656-0.109z" inkscape:connector-curvature="0"/>
                  <path id="path734" style="fill-rule:evenodd;fill:#a87932" d="m10.344 16.699c0.246 0.067 0.726 0.235 1.437 0.5 0.684 0.172 1.121 0.164 1.313-0.019 0.351-0.332 0.328-0.645-0.071-0.938-0.531-0.137-0.882-0.285-1.066-0.445-0.156-0.129-0.527-0.195-1.121-0.211l-0.481 0.551c-0.222 0.277-0.226 0.465-0.011 0.562z" inkscape:connector-curvature="0"/>
                  <path id="path736" style="fill-rule:evenodd;fill:#a87932" d="m12.945 9.219c1.641 0.57 2.559 0.683 2.754 0.343 0.098-0.152-0.023-0.406-0.359-0.757-0.336-0.289-0.598-0.434-0.785-0.438-0.907-0.019-1.45 0-1.641 0.055-0.281 0.09-0.426 0.242-0.43 0.461-0.007 0.219 0.149 0.332 0.461 0.336z" inkscape:connector-curvature="0"/>
                  <path id="path738" style="fill-rule:evenodd;fill:#a87932" d="m19.555 10.773c-0.282 0.149-0.137 0.606 0.441 1.368 0.606 0.73 1.098 1.117 1.469 1.156 0.562 0.043 0.851-0.356 0.871-1.199 0.008-0.407-0.141-0.66-0.453-0.758l-1.153-0.731c-0.152-0.093-0.355-0.101-0.605-0.011-0.285 0.086-0.473 0.144-0.57 0.175z" inkscape:connector-curvature="0"/>
                  <path id="path740" style="fill-rule:evenodd;fill:#a87932" d="m28.188 9.934 0.695 0.39c0.492 0.293 0.863 0.457 1.109 0.492 0.5 0.137 0.922 0.086 1.27-0.156 0.347-0.18 0.351-0.43 0.015-0.75l-0.465-0.152c-0.464-0.164-0.898-0.254-1.304-0.262-0.778-0.016-1.219 0.129-1.32 0.438z" inkscape:connector-curvature="0"/>
                  <g id="g742">
                    <g id="g744">
                      <g id="g746">
                        <path id="path748" style="fill-rule:evenodd;fill:url(#radialGradient456)" d="m21.367 13.621c0.602-0.516 0.817-1.012 0.641-1.484-0.059-0.188-0.258-0.41-0.594-0.668-0.34-0.227-0.523-0.371-0.551-0.434-0.152-0.285-0.476-0.383-0.976-0.301l-0.332 0.039c-0.375 0.086-0.539 0.395-0.489 0.926-0.007 0.496 0 0.84 0.028 1.028 0.023 0.281 0.187 0.519 0.496 0.714 0.863 0.457 1.457 0.516 1.777 0.18z" inkscape:connector-curvature="0"/>
                      </g>
                    </g>
                  </g>
                  <g id="g750">
                    <g id="g752">
                      <g id="g754">
                        <path id="path756" style="fill-rule:evenodd;fill:url(#radialGradient466)" d="m21.367 13.48c0.102-0.246 0.074-0.48-0.078-0.703-0.027-0.062-0.164-0.222-0.41-0.476-0.149-0.254-0.285-0.461-0.406-0.617-0.243-0.289-0.551-0.45-0.926-0.489-0.313-0.039-0.5 0.035-0.567 0.219l-0.015 0.656c-0.008 0.407 0.019 0.657 0.078 0.75 0.086 0.285 0.379 0.524 0.875 0.723 0.523 0.199 0.883 0.285 1.07 0.258 0.188 0.004 0.313-0.102 0.379-0.321z" inkscape:connector-curvature="0"/>
                      </g>
                    </g>
                  </g>
                  <g id="g758">
                    <g id="g760">
                      <g id="g762">
                        <path id="path764" style="fill-rule:evenodd;fill:url(#radialGradient476)" d="m12.039 16.176c-0.406-0.008-0.625-0.031-0.652-0.063-0.246-0.16-0.594-0.074-1.035 0.258l-0.196 0.231c-0.062 0.058-0.109 0.152-0.144 0.277-0.071 0.246 0.004 0.5 0.215 0.754 0.183 0.191 0.367 0.476 0.543 0.855 0.183 0.223 0.445 0.321 0.789 0.297 0.968-0.039 1.523-0.293 1.656-0.758 0.14-0.777 0.047-1.308-0.293-1.597-0.184-0.16-0.477-0.246-0.883-0.254z" inkscape:connector-curvature="0"/>
                      </g>
                    </g>
                  </g>
                  <g id="g766">
                    <g id="g768">
                      <g id="g770">
                        <path id="path772" style="fill-rule:evenodd;fill:url(#radialGradient486)" d="m13.125 17.883c-0.055-0.375-0.406-0.617-1.059-0.723-0.25-0.133-0.464-0.23-0.648-0.297-0.371-0.133-0.734-0.109-1.078 0.071-0.254 0.148-0.367 0.304-0.34 0.461 0 0.062 0.102 0.265 0.312 0.613 0.211 0.316 0.364 0.523 0.458 0.621 0.277 0.16 0.664 0.203 1.168 0.117 0.531-0.109 0.878-0.226 1.035-0.348 0.129-0.125 0.179-0.293 0.152-0.515z" inkscape:connector-curvature="0"/>
                      </g>
                    </g>
                  </g>
                  <g id="g774">
                    <g id="g776">
                      <g id="g778">
                        <path id="path780" style="fill-rule:evenodd;fill:url(#radialGradient496)" d="m13.742 11.297c0.965-0.039 1.52-0.309 1.656-0.805 0.204-0.746 0.106-1.277-0.293-1.597-0.183-0.161-0.48-0.247-0.886-0.254-0.434-0.008-0.668-0.032-0.699-0.063-0.247-0.16-0.59-0.074-1.036 0.258l-0.191 0.23c-0.32 0.274-0.297 0.618 0.07 1.032 0.184 0.222 0.364 0.507 0.543 0.855 0.18 0.254 0.457 0.367 0.836 0.344z" inkscape:connector-curvature="0"/>
                      </g>
                    </g>
                  </g>
                  <g id="g782">
                    <g id="g784">
                      <g id="g786">
                        <path id="path788" style="fill-rule:evenodd;fill:url(#radialGradient506)" d="m12.473 9.398c-0.254 0.149-0.368 0.301-0.34 0.461 0 0.063 0.105 0.266 0.316 0.614 0.211 0.347 0.36 0.554 0.453 0.621 0.278 0.191 0.664 0.234 1.168 0.117 0.563-0.109 0.926-0.227 1.082-0.348 0.129-0.093 0.18-0.261 0.153-0.511-0.055-0.375-0.422-0.618-1.106-0.727-0.246-0.133-0.465-0.23-0.648-0.297-0.371-0.133-0.731-0.109-1.078 0.07z" inkscape:connector-curvature="0"/>
                      </g>
                    </g>
                  </g>
                  <g id="g790">
                    <g id="g792">
                      <g id="g794">
                        <path id="path796" style="fill-rule:evenodd;fill:url(#radialGradient516)" d="m30.684 11.348c0.445-0.364 0.546-0.703 0.304-1.024l-0.179-0.238c-0.094-0.125-0.247-0.238-0.461-0.336-0.184-0.098-0.34-0.133-0.469-0.105-0.742-0.172-1.274-0.168-1.59 0.011-0.441 0.305-0.641 0.813-0.594 1.532 0.02 0.5 0.508 0.871 1.473 1.109 0.34 0.07 0.625 0 0.848-0.215 0.125-0.121 0.347-0.367 0.668-0.734z" inkscape:connector-curvature="0"/>
                      </g>
                    </g>
                  </g>
                  <g id="g798">
                    <g id="g800">
                      <g id="g802">
                        <path id="path804" style="fill-rule:evenodd;fill:url(#radialGradient526)" d="m28.797 12.148c0.496 0.168 0.883 0.192 1.168 0.075 0.156-0.059 0.347-0.243 0.574-0.551 0.254-0.336 0.399-0.504 0.43-0.504 0.066-0.188-0.024-0.359-0.27-0.523-0.304-0.223-0.644-0.325-1.019-0.301-0.348 0.117-0.582 0.172-0.707 0.172-0.688 0.078-1.082 0.269-1.184 0.582-0.066 0.214-0.055 0.386 0.035 0.515 0.121 0.125 0.446 0.305 0.973 0.535z" inkscape:connector-curvature="0"/>
                      </g>
                    </g>
                  </g>
                  <path id="path806" style="fill-rule:evenodd;fill:#e6c15c" d="m10.473 8.789c1.062-0.035 1.597-0.258 1.605-0.664 0.035-0.156 0.008-0.266-0.086-0.332-0.121-0.094-0.246-0.176-0.367-0.238-0.25-0.133-0.508-0.34-0.785-0.629-0.152-0.094-0.578 0.019-1.27 0.347-0.281 0.055-0.461 0.286-0.531 0.692-0.008 0.25 0.066 0.406 0.223 0.473 0.093 0 0.277 0.066 0.558 0.199 0.278 0.129 0.496 0.183 0.653 0.152z" inkscape:connector-curvature="0"/>
                  <path id="path808" style="fill-rule:evenodd;fill:#cfa146" d="m11.836 8.492 0.144-0.09c0.094-0.09 0.129-0.183 0.098-0.277 0.004-0.156-0.023-0.281-0.086-0.375l-0.785-0.488c-0.184-0.129-0.305-0.242-0.367-0.336-0.094 0.125-0.145 0.246-0.149 0.371l-0.101 0.469 0.508 0.242c0.277 0.101 0.523 0.262 0.738 0.484z" inkscape:connector-curvature="0"/>
                  <path id="path810" style="fill-rule:evenodd;fill:#ffe191" d="m10.59 7.762-0.192 0.09-0.609 0.128-0.754 0.262 0.785 0.442c0.371 0.164 0.649 0.23 0.84 0.203 0.781-0.106 1.176-0.239 1.18-0.395 0-0.121-0.418-0.367-1.25-0.73z" inkscape:connector-curvature="0"/>
                </g>
              </g>
            </g>
          </g>
          <g id="g812" transform="translate(0 -.35477)">
            <g id="g820">
              <g id="g822" clip-path="url(#clipPath816)">
                <g id="g824">
                  <path id="path826" style="fill-rule:evenodd;fill:#000000;fill-opacity:0.349" d="m22.891 7.496h-0.024c0.024 0.145 0.008 0.242-0.043 0.297l0.559 0.074c0.586 0.012 0.883-0.262 0.898-0.82l0.121-0.078c0.055-0.024 0.082-0.106 0.086-0.239l0.399 0.012 0.035 0.199-0.086 0.317c-0.004 0.101 0.019 0.195 0.074 0.285 0.004-0.023 0.012-0.043 0.02-0.063 0.156-0.328 0.312-0.546 0.476-0.648 0.133-0.102 0.203-0.168 0.203-0.195l0.243-0.114h0.019c-0.039-0.011-0.078-0.027-0.117-0.043-0.527-0.144-1.066-0.281-1.613-0.418-0.067-0.011-0.129-0.027-0.2-0.042v0.019l0.067 0.641c-0.012 0.441-0.25 0.703-0.719 0.785-0.113 0.023-0.25 0.031-0.398 0.031zm-1.692-0.437c-0.367-0.356-0.547-0.653-0.543-0.895l0.09-0.394c0.004-0.11 0.043-0.172 0.125-0.2l-0.199-0.004-0.442 0.071c-0.292-0.008-0.48-0.063-0.558-0.172 0.055-0.051 0.121-0.098 0.203-0.137-0.133-0.016-0.266-0.031-0.398-0.047-0.286-0.027-0.571-0.054-0.86-0.082-0.086-0.008-0.176-0.015-0.258-0.023-0.316-0.02-0.636-0.043-0.957-0.063-0.035 0-0.07 0-0.101-0.004-0.008 0.329-0.156 0.653-0.442 0.973l-0.531 0.387c-0.457 0.203-0.766 0.304-0.926 0.301-0.293-0.008-0.648-0.231-1.066-0.665-0.414-0.41-0.66-0.761-0.734-1.058-0.43 0.012-0.848 0.027-1.262 0.055-1.836 0.089-3.512 0.285-5.035 0.586-1.246 0.257-2.387 0.585-3.422 0.984-0.625 0.23-1.168 0.473-1.637 0.723l0.297 0.046 0.281 0.086 1.977-0.875 2.176-0.632c0.023 0.136 0.144 0.203 0.355 0.21 0.133 0 1.031-0.203 2.695-0.621 0.102 0.161 0.18 0.243 0.235 0.246l0.683-0.226c0.512-0.121 0.86-0.18 1.047-0.176l0.36 0.047c0.105 0.004 0.332 0.047 0.675 0.137 0.215 0.004 0.477 0.222 0.785 0.656 0.309 0.461 0.547 0.691 0.708 0.695 0.027 0 0.089 0.059 0.195 0.164 0.101 0.11 0.195 0.164 0.277 0.168 0.586 0.012 1.133-0.093 1.645-0.324 0.269-0.101 0.504-0.348 0.699-0.746 0.168-0.367 0.68-0.598 1.535-0.684 0.133 0.004 0.481 0.051 1.035 0.145 0.028 0 0.09 0.187 0.188 0.562 0.125 0.43 0.332 0.704 0.625 0.813 0.394 0.172 0.75 0.352 1.066 0.547 0.113 0.051 0.246 0.086 0.399 0.109-0.34-0.148-0.668-0.375-0.985-0.683zm10.512 2.234c-0.074-0.063-0.152-0.125-0.234-0.184-0.032-0.027-0.063-0.054-0.098-0.082-0.055-0.05-0.113-0.097-0.18-0.144h-0.019c-0.18 0.101-0.332 0.152-0.461 0.148-0.321-0.008-0.477-0.172-0.473-0.492l0.086-0.195c-0.09-0.059-0.18-0.117-0.277-0.168-0.028 0.035-0.039 0.062-0.039 0.078-0.004 0.055-0.153 0.156-0.45 0.312-0.32 0.149-0.617 0.27-0.886 0.36-0.035 0.012-0.071 0.027-0.102 0.039-0.019 0.004-0.039 0.012-0.058 0.015l0.031 0.301c0.015 0.004 0.035 0.004 0.058 0.004 0.129-0.015 0.282-0.047 0.465-0.09 0.293-0.074 0.442-0.152 0.446-0.23 0-0.027 0.078-0.039 0.238-0.035 0.082 0 0.187 0.058 0.316 0.168 0.133 0.109 0.227 0.164 0.278 0.164l0.683-0.063 0.559 0.051 0.117 0.043zm-3.238-1.852c-0.078-0.031-0.149-0.058-0.219-0.086-0.035-0.015-0.07-0.031-0.098-0.043-0.324-0.124-0.66-0.246-1.015-0.363-0.016 0.078-0.039 0.176-0.067 0.301-0.023 0.121-0.226 0.262-0.609 0.426-0.379 0.16-0.777 0.105-1.195-0.168 0.21 0.351 0.406 0.531 0.589 0.535 0.399 0.008 0.707-0.09 0.926-0.301 0.219-0.18 0.473-0.25 0.766-0.203s0.472 0.199 0.527 0.453c0.059 0.25 0.125 0.278 0.199 0.086 0.078-0.195 0.129-0.348 0.153-0.457 0.015-0.109 0.027-0.168 0.043-0.18z" inkscape:connector-curvature="0"/>
                </g>
              </g>
            </g>
          </g>
        </g>
      </g>
    </g>
  </g>
<metadata><rdf:RDF><cc:Work><dc:format>image/svg+xml</dc:format><dc:type rdf:resource="http://purl.org/dc/dcmitype/StillImage"/><cc:license rdf:resource="http://creativecommons.org/licenses/publicdomain/"/><dc:publisher><cc:Agent rdf:about="http://openclipart.org/"><dc:title>Openclipart</dc:title></cc:Agent></dc:publisher></cc:Work><cc:License rdf:about="http://creativecommons.org/licenses/publicdomain/"><cc:permits rdf:resource="http://creativecommons.org/ns#Reproduction"/><cc:permits rdf:resource="http://creativecommons.org/ns#Distribution"/><cc:permits rdf:resource="http://creativecommons.org/ns#DerivativeWorks"/></cc:License></rdf:RDF></metadata></svg>
